<?xml version="1.0" encoding="utf-8" standalone="no"?>
<!DOCTYPE svg PUBLIC "-//W3C//DTD SVG 1.1//EN"
  "http://www.w3.org/Graphics/SVG/1.1/DTD/svg11.dtd">
<svg xmlns:xlink="http://www.w3.org/1999/xlink" width="505.760937pt" height="321.95625pt" viewBox="0 0 505.760937 321.95625" xmlns="http://www.w3.org/2000/svg" version="1.1">
 <metadata>
  <rdf:RDF xmlns:dc="http://purl.org/dc/elements/1.1/" xmlns:cc="http://creativecommons.org/ns#" xmlns:rdf="http://www.w3.org/1999/02/22-rdf-syntax-ns#">
   <cc:Work>
    <dc:type rdf:resource="http://purl.org/dc/dcmitype/StillImage"/>
    <dc:date>2024-06-29T18:23:49.010682</dc:date>
    <dc:format>image/svg+xml</dc:format>
    <dc:creator>
     <cc:Agent>
      <dc:title>Matplotlib v3.9.0, https://matplotlib.org/</dc:title>
     </cc:Agent>
    </dc:creator>
   </cc:Work>
  </rdf:RDF>
 </metadata>
 <defs>
  <style type="text/css">*{stroke-linejoin: round; stroke-linecap: butt}</style>
 </defs>
 <g id="figure_1">
  <g id="patch_1">
   <path d="M 0 321.95625 
L 505.760937 321.95625 
L 505.760937 0 
L 0 0 
z
" style="fill: #ffffff"/>
  </g>
  <g id="axes_1">
   <g id="patch_2">
    <path d="M 52.160938 133.2 
L 498.560937 133.2 
L 498.560937 7.2 
L 52.160938 7.2 
z
" style="fill: #ffffff"/>
   </g>
   <g id="matplotlib.axis_1">
    <g id="xtick_1">
     <g id="line2d_1">
      <defs>
       <path id="m7093636e8e" d="M 0 0 
L 0 3.5 
" style="stroke: #000000; stroke-width: 0.8"/>
      </defs>
      <g>
       <use xlink:href="#m7093636e8e" x="72.451847" y="133.2" style="stroke: #000000; stroke-width: 0.8"/>
      </g>
     </g>
     <g id="text_1">
      <!-- 0.0 -->
      <g transform="translate(64.500284 147.798437) scale(0.1 -0.1)">
       <defs>
        <path id="DejaVuSans-30" d="M 2034 4250 
Q 1547 4250 1301 3770 
Q 1056 3291 1056 2328 
Q 1056 1369 1301 889 
Q 1547 409 2034 409 
Q 2525 409 2770 889 
Q 3016 1369 3016 2328 
Q 3016 3291 2770 3770 
Q 2525 4250 2034 4250 
z
M 2034 4750 
Q 2819 4750 3233 4129 
Q 3647 3509 3647 2328 
Q 3647 1150 3233 529 
Q 2819 -91 2034 -91 
Q 1250 -91 836 529 
Q 422 1150 422 2328 
Q 422 3509 836 4129 
Q 1250 4750 2034 4750 
z
" transform="scale(0.015625)"/>
        <path id="DejaVuSans-2e" d="M 684 794 
L 1344 794 
L 1344 0 
L 684 0 
L 684 794 
z
" transform="scale(0.015625)"/>
       </defs>
       <use xlink:href="#DejaVuSans-30"/>
       <use xlink:href="#DejaVuSans-2e" x="63.623047"/>
       <use xlink:href="#DejaVuSans-30" x="95.410156"/>
      </g>
     </g>
    </g>
    <g id="xtick_2">
     <g id="line2d_2">
      <g>
       <use xlink:href="#m7093636e8e" x="123.179119" y="133.2" style="stroke: #000000; stroke-width: 0.8"/>
      </g>
     </g>
     <g id="text_2">
      <!-- 2.5 -->
      <g transform="translate(115.227557 147.798437) scale(0.1 -0.1)">
       <defs>
        <path id="DejaVuSans-32" d="M 1228 531 
L 3431 531 
L 3431 0 
L 469 0 
L 469 531 
Q 828 903 1448 1529 
Q 2069 2156 2228 2338 
Q 2531 2678 2651 2914 
Q 2772 3150 2772 3378 
Q 2772 3750 2511 3984 
Q 2250 4219 1831 4219 
Q 1534 4219 1204 4116 
Q 875 4013 500 3803 
L 500 4441 
Q 881 4594 1212 4672 
Q 1544 4750 1819 4750 
Q 2544 4750 2975 4387 
Q 3406 4025 3406 3419 
Q 3406 3131 3298 2873 
Q 3191 2616 2906 2266 
Q 2828 2175 2409 1742 
Q 1991 1309 1228 531 
z
" transform="scale(0.015625)"/>
        <path id="DejaVuSans-35" d="M 691 4666 
L 3169 4666 
L 3169 4134 
L 1269 4134 
L 1269 2991 
Q 1406 3038 1543 3061 
Q 1681 3084 1819 3084 
Q 2600 3084 3056 2656 
Q 3513 2228 3513 1497 
Q 3513 744 3044 326 
Q 2575 -91 1722 -91 
Q 1428 -91 1123 -41 
Q 819 9 494 109 
L 494 744 
Q 775 591 1075 516 
Q 1375 441 1709 441 
Q 2250 441 2565 725 
Q 2881 1009 2881 1497 
Q 2881 1984 2565 2268 
Q 2250 2553 1709 2553 
Q 1456 2553 1204 2497 
Q 953 2441 691 2322 
L 691 4666 
z
" transform="scale(0.015625)"/>
       </defs>
       <use xlink:href="#DejaVuSans-32"/>
       <use xlink:href="#DejaVuSans-2e" x="63.623047"/>
       <use xlink:href="#DejaVuSans-35" x="95.410156"/>
      </g>
     </g>
    </g>
    <g id="xtick_3">
     <g id="line2d_3">
      <g>
       <use xlink:href="#m7093636e8e" x="173.906392" y="133.2" style="stroke: #000000; stroke-width: 0.8"/>
      </g>
     </g>
     <g id="text_3">
      <!-- 5.0 -->
      <g transform="translate(165.95483 147.798437) scale(0.1 -0.1)">
       <use xlink:href="#DejaVuSans-35"/>
       <use xlink:href="#DejaVuSans-2e" x="63.623047"/>
       <use xlink:href="#DejaVuSans-30" x="95.410156"/>
      </g>
     </g>
    </g>
    <g id="xtick_4">
     <g id="line2d_4">
      <g>
       <use xlink:href="#m7093636e8e" x="224.633665" y="133.2" style="stroke: #000000; stroke-width: 0.8"/>
      </g>
     </g>
     <g id="text_4">
      <!-- 7.5 -->
      <g transform="translate(216.682102 147.798437) scale(0.1 -0.1)">
       <defs>
        <path id="DejaVuSans-37" d="M 525 4666 
L 3525 4666 
L 3525 4397 
L 1831 0 
L 1172 0 
L 2766 4134 
L 525 4134 
L 525 4666 
z
" transform="scale(0.015625)"/>
       </defs>
       <use xlink:href="#DejaVuSans-37"/>
       <use xlink:href="#DejaVuSans-2e" x="63.623047"/>
       <use xlink:href="#DejaVuSans-35" x="95.410156"/>
      </g>
     </g>
    </g>
    <g id="xtick_5">
     <g id="line2d_5">
      <g>
       <use xlink:href="#m7093636e8e" x="275.360937" y="133.2" style="stroke: #000000; stroke-width: 0.8"/>
      </g>
     </g>
     <g id="text_5">
      <!-- 10.0 -->
      <g transform="translate(264.228125 147.798437) scale(0.1 -0.1)">
       <defs>
        <path id="DejaVuSans-31" d="M 794 531 
L 1825 531 
L 1825 4091 
L 703 3866 
L 703 4441 
L 1819 4666 
L 2450 4666 
L 2450 531 
L 3481 531 
L 3481 0 
L 794 0 
L 794 531 
z
" transform="scale(0.015625)"/>
       </defs>
       <use xlink:href="#DejaVuSans-31"/>
       <use xlink:href="#DejaVuSans-30" x="63.623047"/>
       <use xlink:href="#DejaVuSans-2e" x="127.246094"/>
       <use xlink:href="#DejaVuSans-30" x="159.033203"/>
      </g>
     </g>
    </g>
    <g id="xtick_6">
     <g id="line2d_6">
      <g>
       <use xlink:href="#m7093636e8e" x="326.08821" y="133.2" style="stroke: #000000; stroke-width: 0.8"/>
      </g>
     </g>
     <g id="text_6">
      <!-- 12.5 -->
      <g transform="translate(314.955398 147.798437) scale(0.1 -0.1)">
       <use xlink:href="#DejaVuSans-31"/>
       <use xlink:href="#DejaVuSans-32" x="63.623047"/>
       <use xlink:href="#DejaVuSans-2e" x="127.246094"/>
       <use xlink:href="#DejaVuSans-35" x="159.033203"/>
      </g>
     </g>
    </g>
    <g id="xtick_7">
     <g id="line2d_7">
      <g>
       <use xlink:href="#m7093636e8e" x="376.815483" y="133.2" style="stroke: #000000; stroke-width: 0.8"/>
      </g>
     </g>
     <g id="text_7">
      <!-- 15.0 -->
      <g transform="translate(365.68267 147.798437) scale(0.1 -0.1)">
       <use xlink:href="#DejaVuSans-31"/>
       <use xlink:href="#DejaVuSans-35" x="63.623047"/>
       <use xlink:href="#DejaVuSans-2e" x="127.246094"/>
       <use xlink:href="#DejaVuSans-30" x="159.033203"/>
      </g>
     </g>
    </g>
    <g id="xtick_8">
     <g id="line2d_8">
      <g>
       <use xlink:href="#m7093636e8e" x="427.542756" y="133.2" style="stroke: #000000; stroke-width: 0.8"/>
      </g>
     </g>
     <g id="text_8">
      <!-- 17.5 -->
      <g transform="translate(416.409943 147.798437) scale(0.1 -0.1)">
       <use xlink:href="#DejaVuSans-31"/>
       <use xlink:href="#DejaVuSans-37" x="63.623047"/>
       <use xlink:href="#DejaVuSans-2e" x="127.246094"/>
       <use xlink:href="#DejaVuSans-35" x="159.033203"/>
      </g>
     </g>
    </g>
    <g id="xtick_9">
     <g id="line2d_9">
      <g>
       <use xlink:href="#m7093636e8e" x="478.270028" y="133.2" style="stroke: #000000; stroke-width: 0.8"/>
      </g>
     </g>
     <g id="text_9">
      <!-- 20.0 -->
      <g transform="translate(467.137216 147.798437) scale(0.1 -0.1)">
       <use xlink:href="#DejaVuSans-32"/>
       <use xlink:href="#DejaVuSans-30" x="63.623047"/>
       <use xlink:href="#DejaVuSans-2e" x="127.246094"/>
       <use xlink:href="#DejaVuSans-30" x="159.033203"/>
      </g>
     </g>
    </g>
    <g id="text_10">
     <!-- t -->
     <g transform="translate(273.400781 161.476562) scale(0.1 -0.1)">
      <defs>
       <path id="DejaVuSans-74" d="M 1172 4494 
L 1172 3500 
L 2356 3500 
L 2356 3053 
L 1172 3053 
L 1172 1153 
Q 1172 725 1289 603 
Q 1406 481 1766 481 
L 2356 481 
L 2356 0 
L 1766 0 
Q 1100 0 847 248 
Q 594 497 594 1153 
L 594 3053 
L 172 3053 
L 172 3500 
L 594 3500 
L 594 4494 
L 1172 4494 
z
" transform="scale(0.015625)"/>
      </defs>
      <use xlink:href="#DejaVuSans-74"/>
     </g>
    </g>
   </g>
   <g id="matplotlib.axis_2">
    <g id="ytick_1">
     <g id="line2d_10">
      <defs>
       <path id="m70a8bb20a9" d="M 0 0 
L -3.5 0 
" style="stroke: #000000; stroke-width: 0.8"/>
      </defs>
      <g>
       <use xlink:href="#m70a8bb20a9" x="52.160938" y="110.787393" style="stroke: #000000; stroke-width: 0.8"/>
      </g>
     </g>
     <g id="text_11">
      <!-- −0.5 -->
      <g transform="translate(20.878125 114.586612) scale(0.1 -0.1)">
       <defs>
        <path id="DejaVuSans-2212" d="M 678 2272 
L 4684 2272 
L 4684 1741 
L 678 1741 
L 678 2272 
z
" transform="scale(0.015625)"/>
       </defs>
       <use xlink:href="#DejaVuSans-2212"/>
       <use xlink:href="#DejaVuSans-30" x="83.789062"/>
       <use xlink:href="#DejaVuSans-2e" x="147.412109"/>
       <use xlink:href="#DejaVuSans-35" x="179.199219"/>
      </g>
     </g>
    </g>
    <g id="ytick_2">
     <g id="line2d_11">
      <g>
       <use xlink:href="#m70a8bb20a9" x="52.160938" y="73.279834" style="stroke: #000000; stroke-width: 0.8"/>
      </g>
     </g>
     <g id="text_12">
      <!-- 0.0 -->
      <g transform="translate(29.257812 77.079052) scale(0.1 -0.1)">
       <use xlink:href="#DejaVuSans-30"/>
       <use xlink:href="#DejaVuSans-2e" x="63.623047"/>
       <use xlink:href="#DejaVuSans-30" x="95.410156"/>
      </g>
     </g>
    </g>
    <g id="ytick_3">
     <g id="line2d_12">
      <g>
       <use xlink:href="#m70a8bb20a9" x="52.160938" y="35.772274" style="stroke: #000000; stroke-width: 0.8"/>
      </g>
     </g>
     <g id="text_13">
      <!-- 0.5 -->
      <g transform="translate(29.257812 39.571493) scale(0.1 -0.1)">
       <use xlink:href="#DejaVuSans-30"/>
       <use xlink:href="#DejaVuSans-2e" x="63.623047"/>
       <use xlink:href="#DejaVuSans-35" x="95.410156"/>
      </g>
     </g>
    </g>
    <g id="text_14">
     <!-- f(t) -->
     <g transform="translate(14.798438 77.821875) rotate(-90) scale(0.1 -0.1)">
      <defs>
       <path id="DejaVuSans-66" d="M 2375 4863 
L 2375 4384 
L 1825 4384 
Q 1516 4384 1395 4259 
Q 1275 4134 1275 3809 
L 1275 3500 
L 2222 3500 
L 2222 3053 
L 1275 3053 
L 1275 0 
L 697 0 
L 697 3053 
L 147 3053 
L 147 3500 
L 697 3500 
L 697 3744 
Q 697 4328 969 4595 
Q 1241 4863 1831 4863 
L 2375 4863 
z
" transform="scale(0.015625)"/>
       <path id="DejaVuSans-28" d="M 1984 4856 
Q 1566 4138 1362 3434 
Q 1159 2731 1159 2009 
Q 1159 1288 1364 580 
Q 1569 -128 1984 -844 
L 1484 -844 
Q 1016 -109 783 600 
Q 550 1309 550 2009 
Q 550 2706 781 3412 
Q 1013 4119 1484 4856 
L 1984 4856 
z
" transform="scale(0.015625)"/>
       <path id="DejaVuSans-29" d="M 513 4856 
L 1013 4856 
Q 1481 4119 1714 3412 
Q 1947 2706 1947 2009 
Q 1947 1309 1714 600 
Q 1481 -109 1013 -844 
L 513 -844 
Q 928 -128 1133 580 
Q 1338 1288 1338 2009 
Q 1338 2731 1133 3434 
Q 928 4138 513 4856 
z
" transform="scale(0.015625)"/>
      </defs>
      <use xlink:href="#DejaVuSans-66"/>
      <use xlink:href="#DejaVuSans-28" x="35.205078"/>
      <use xlink:href="#DejaVuSans-74" x="74.21875"/>
      <use xlink:href="#DejaVuSans-29" x="113.427734"/>
     </g>
    </g>
   </g>
   <g id="line2d_13">
    <path d="M 72.451847 73.279834 
L 76.55102 73.557489 
L 80.650194 75.247713 
L 84.749367 79.085863 
L 88.848541 85.148395 
L 92.947714 92.990411 
L 97.046888 101.810975 
L 101.146061 110.622642 
L 105.245235 118.4075 
L 109.344409 124.2476 
L 113.443582 127.422716 
L 117.542756 127.472727 
L 121.641929 124.225472 
L 125.741103 117.793607 
L 129.840276 108.545867 
L 133.93945 97.059193 
L 138.038623 84.058555 
L 142.137797 70.351121 
L 146.236971 56.760731 
L 150.336144 44.067708 
L 154.435318 32.957834 
L 158.534491 23.983097 
L 162.633665 17.535572 
L 166.732838 13.834707 
L 170.832012 12.927273 
L 174.931185 14.698516 
L 179.030359 18.89246 
L 183.129533 25.138995 
L 187.228706 32.985232 
L 191.32788 41.92869 
L 195.427053 51.450038 
L 199.526227 61.043464 
L 203.6254 70.243121 
L 207.724574 78.644539 
L 211.823747 85.92032 
L 215.922921 91.829889 
L 220.022095 96.223423 
L 224.121268 99.040408 
L 228.220442 100.303553 
L 232.319615 100.108919 
L 236.418789 98.613273 
L 240.517962 96.019667 
L 244.617136 92.562245 
L 248.716309 88.491174 
L 252.815483 84.058485 
L 256.914657 79.505473 
L 261.01383 75.05211 
L 265.113004 70.888782 
L 269.212177 67.170499 
L 273.311351 64.013556 
L 277.410524 61.494523 
L 281.509698 59.651322 
L 285.608871 58.486066 
L 289.708045 57.969305 
L 293.807218 58.04529 
L 297.906392 58.637843 
L 302.005566 59.656493 
L 306.104739 61.002513 
L 310.203913 62.574594 
L 314.303086 64.273908 
L 318.40226 66.00841 
L 322.501433 67.69625 
L 326.600607 69.268262 
L 330.69978 70.669523 
L 334.798954 71.860033 
L 338.898128 72.814605 
L 342.997301 73.522066 
L 347.096475 73.983908 
L 351.195648 74.212528 
L 355.294822 74.229196 
L 359.393995 74.061876 
L 363.493169 73.743038 
L 367.592342 73.307561 
L 371.691516 72.7908 
L 375.79069 72.22691 
L 379.889863 71.647452 
L 383.989037 71.080307 
L 388.08821 70.548924 
L 392.187384 70.071865 
L 396.286557 69.662648 
L 400.385731 69.329843 
L 404.484904 69.077375 
L 408.584078 68.905012 
L 412.683252 68.808959 
L 416.782425 68.782543 
L 420.881599 68.816924 
L 424.980772 68.90181 
L 429.079946 69.026129 
L 433.179119 69.178643 
L 437.278293 69.348483 
L 441.377466 69.525584 
L 445.47664 69.701026 
L 449.575814 69.867267 
L 453.674987 70.018283 
L 457.774161 70.149616 
L 461.873334 70.25835 
L 465.972508 70.343007 
L 470.071681 70.403408 
L 474.170855 70.440483 
L 478.270028 70.45607 
" clip-path="url(#p4d8642876c)" style="fill: none; stroke: #1f77b4; stroke-width: 1.5; stroke-linecap: square"/>
   </g>
   <g id="patch_3">
    <path d="M 52.160938 133.2 
L 52.160938 7.2 
" style="fill: none; stroke: #000000; stroke-width: 0.8; stroke-linejoin: miter; stroke-linecap: square"/>
   </g>
   <g id="patch_4">
    <path d="M 498.560937 133.2 
L 498.560937 7.2 
" style="fill: none; stroke: #000000; stroke-width: 0.8; stroke-linejoin: miter; stroke-linecap: square"/>
   </g>
   <g id="patch_5">
    <path d="M 52.160938 133.2 
L 498.560937 133.2 
" style="fill: none; stroke: #000000; stroke-width: 0.8; stroke-linejoin: miter; stroke-linecap: square"/>
   </g>
   <g id="patch_6">
    <path d="M 52.160938 7.2 
L 498.560937 7.2 
" style="fill: none; stroke: #000000; stroke-width: 0.8; stroke-linejoin: miter; stroke-linecap: square"/>
   </g>
  </g>
  <g id="axes_2">
   <g id="patch_7">
    <path d="M 52.160938 284.4 
L 498.560937 284.4 
L 498.560937 158.4 
L 52.160938 158.4 
z
" style="fill: #ffffff"/>
   </g>
   <g id="matplotlib.axis_3">
    <g id="xtick_10">
     <g id="line2d_14">
      <g>
       <use xlink:href="#m7093636e8e" x="72.451847" y="284.4" style="stroke: #000000; stroke-width: 0.8"/>
      </g>
     </g>
     <g id="text_15">
      <!-- 0.0 -->
      <g transform="translate(64.500284 298.998438) scale(0.1 -0.1)">
       <use xlink:href="#DejaVuSans-30"/>
       <use xlink:href="#DejaVuSans-2e" x="63.623047"/>
       <use xlink:href="#DejaVuSans-30" x="95.410156"/>
      </g>
     </g>
    </g>
    <g id="xtick_11">
     <g id="line2d_15">
      <g>
       <use xlink:href="#m7093636e8e" x="123.179119" y="284.4" style="stroke: #000000; stroke-width: 0.8"/>
      </g>
     </g>
     <g id="text_16">
      <!-- 2.5 -->
      <g transform="translate(115.227557 298.998438) scale(0.1 -0.1)">
       <use xlink:href="#DejaVuSans-32"/>
       <use xlink:href="#DejaVuSans-2e" x="63.623047"/>
       <use xlink:href="#DejaVuSans-35" x="95.410156"/>
      </g>
     </g>
    </g>
    <g id="xtick_12">
     <g id="line2d_16">
      <g>
       <use xlink:href="#m7093636e8e" x="173.906392" y="284.4" style="stroke: #000000; stroke-width: 0.8"/>
      </g>
     </g>
     <g id="text_17">
      <!-- 5.0 -->
      <g transform="translate(165.95483 298.998438) scale(0.1 -0.1)">
       <use xlink:href="#DejaVuSans-35"/>
       <use xlink:href="#DejaVuSans-2e" x="63.623047"/>
       <use xlink:href="#DejaVuSans-30" x="95.410156"/>
      </g>
     </g>
    </g>
    <g id="xtick_13">
     <g id="line2d_17">
      <g>
       <use xlink:href="#m7093636e8e" x="224.633665" y="284.4" style="stroke: #000000; stroke-width: 0.8"/>
      </g>
     </g>
     <g id="text_18">
      <!-- 7.5 -->
      <g transform="translate(216.682102 298.998438) scale(0.1 -0.1)">
       <use xlink:href="#DejaVuSans-37"/>
       <use xlink:href="#DejaVuSans-2e" x="63.623047"/>
       <use xlink:href="#DejaVuSans-35" x="95.410156"/>
      </g>
     </g>
    </g>
    <g id="xtick_14">
     <g id="line2d_18">
      <g>
       <use xlink:href="#m7093636e8e" x="275.360937" y="284.4" style="stroke: #000000; stroke-width: 0.8"/>
      </g>
     </g>
     <g id="text_19">
      <!-- 10.0 -->
      <g transform="translate(264.228125 298.998438) scale(0.1 -0.1)">
       <use xlink:href="#DejaVuSans-31"/>
       <use xlink:href="#DejaVuSans-30" x="63.623047"/>
       <use xlink:href="#DejaVuSans-2e" x="127.246094"/>
       <use xlink:href="#DejaVuSans-30" x="159.033203"/>
      </g>
     </g>
    </g>
    <g id="xtick_15">
     <g id="line2d_19">
      <g>
       <use xlink:href="#m7093636e8e" x="326.08821" y="284.4" style="stroke: #000000; stroke-width: 0.8"/>
      </g>
     </g>
     <g id="text_20">
      <!-- 12.5 -->
      <g transform="translate(314.955398 298.998438) scale(0.1 -0.1)">
       <use xlink:href="#DejaVuSans-31"/>
       <use xlink:href="#DejaVuSans-32" x="63.623047"/>
       <use xlink:href="#DejaVuSans-2e" x="127.246094"/>
       <use xlink:href="#DejaVuSans-35" x="159.033203"/>
      </g>
     </g>
    </g>
    <g id="xtick_16">
     <g id="line2d_20">
      <g>
       <use xlink:href="#m7093636e8e" x="376.815483" y="284.4" style="stroke: #000000; stroke-width: 0.8"/>
      </g>
     </g>
     <g id="text_21">
      <!-- 15.0 -->
      <g transform="translate(365.68267 298.998438) scale(0.1 -0.1)">
       <use xlink:href="#DejaVuSans-31"/>
       <use xlink:href="#DejaVuSans-35" x="63.623047"/>
       <use xlink:href="#DejaVuSans-2e" x="127.246094"/>
       <use xlink:href="#DejaVuSans-30" x="159.033203"/>
      </g>
     </g>
    </g>
    <g id="xtick_17">
     <g id="line2d_21">
      <g>
       <use xlink:href="#m7093636e8e" x="427.542756" y="284.4" style="stroke: #000000; stroke-width: 0.8"/>
      </g>
     </g>
     <g id="text_22">
      <!-- 17.5 -->
      <g transform="translate(416.409943 298.998438) scale(0.1 -0.1)">
       <use xlink:href="#DejaVuSans-31"/>
       <use xlink:href="#DejaVuSans-37" x="63.623047"/>
       <use xlink:href="#DejaVuSans-2e" x="127.246094"/>
       <use xlink:href="#DejaVuSans-35" x="159.033203"/>
      </g>
     </g>
    </g>
    <g id="xtick_18">
     <g id="line2d_22">
      <g>
       <use xlink:href="#m7093636e8e" x="478.270028" y="284.4" style="stroke: #000000; stroke-width: 0.8"/>
      </g>
     </g>
     <g id="text_23">
      <!-- 20.0 -->
      <g transform="translate(467.137216 298.998438) scale(0.1 -0.1)">
       <use xlink:href="#DejaVuSans-32"/>
       <use xlink:href="#DejaVuSans-30" x="63.623047"/>
       <use xlink:href="#DejaVuSans-2e" x="127.246094"/>
       <use xlink:href="#DejaVuSans-30" x="159.033203"/>
      </g>
     </g>
    </g>
    <g id="text_24">
     <!-- t -->
     <g transform="translate(273.400781 312.676562) scale(0.1 -0.1)">
      <use xlink:href="#DejaVuSans-74"/>
     </g>
    </g>
   </g>
   <g id="matplotlib.axis_4">
    <g id="ytick_4">
     <g id="line2d_23">
      <g>
       <use xlink:href="#m70a8bb20a9" x="52.160938" y="265.330191" style="stroke: #000000; stroke-width: 0.8"/>
      </g>
     </g>
     <g id="text_25">
      <!-- $\mathdefault{10^{-7}}$ -->
      <g transform="translate(21.660938 269.129409) scale(0.1 -0.1)">
       <use xlink:href="#DejaVuSans-31" transform="translate(0 0.684375)"/>
       <use xlink:href="#DejaVuSans-30" transform="translate(63.623047 0.684375)"/>
       <use xlink:href="#DejaVuSans-2212" transform="translate(128.203125 38.965625) scale(0.7)"/>
       <use xlink:href="#DejaVuSans-37" transform="translate(186.855469 38.965625) scale(0.7)"/>
      </g>
     </g>
    </g>
    <g id="ytick_5">
     <g id="line2d_24">
      <g>
       <use xlink:href="#m70a8bb20a9" x="52.160938" y="229.611875" style="stroke: #000000; stroke-width: 0.8"/>
      </g>
     </g>
     <g id="text_26">
      <!-- $\mathdefault{10^{-6}}$ -->
      <g transform="translate(21.660938 233.411094) scale(0.1 -0.1)">
       <defs>
        <path id="DejaVuSans-36" d="M 2113 2584 
Q 1688 2584 1439 2293 
Q 1191 2003 1191 1497 
Q 1191 994 1439 701 
Q 1688 409 2113 409 
Q 2538 409 2786 701 
Q 3034 994 3034 1497 
Q 3034 2003 2786 2293 
Q 2538 2584 2113 2584 
z
M 3366 4563 
L 3366 3988 
Q 3128 4100 2886 4159 
Q 2644 4219 2406 4219 
Q 1781 4219 1451 3797 
Q 1122 3375 1075 2522 
Q 1259 2794 1537 2939 
Q 1816 3084 2150 3084 
Q 2853 3084 3261 2657 
Q 3669 2231 3669 1497 
Q 3669 778 3244 343 
Q 2819 -91 2113 -91 
Q 1303 -91 875 529 
Q 447 1150 447 2328 
Q 447 3434 972 4092 
Q 1497 4750 2381 4750 
Q 2619 4750 2861 4703 
Q 3103 4656 3366 4563 
z
" transform="scale(0.015625)"/>
       </defs>
       <use xlink:href="#DejaVuSans-31" transform="translate(0 0.765625)"/>
       <use xlink:href="#DejaVuSans-30" transform="translate(63.623047 0.765625)"/>
       <use xlink:href="#DejaVuSans-2212" transform="translate(128.203125 39.046875) scale(0.7)"/>
       <use xlink:href="#DejaVuSans-36" transform="translate(186.855469 39.046875) scale(0.7)"/>
      </g>
     </g>
    </g>
    <g id="ytick_6">
     <g id="line2d_25">
      <g>
       <use xlink:href="#m70a8bb20a9" x="52.160938" y="193.89356" style="stroke: #000000; stroke-width: 0.8"/>
      </g>
     </g>
     <g id="text_27">
      <!-- $\mathdefault{10^{-5}}$ -->
      <g transform="translate(21.660938 197.692779) scale(0.1 -0.1)">
       <use xlink:href="#DejaVuSans-31" transform="translate(0 0.684375)"/>
       <use xlink:href="#DejaVuSans-30" transform="translate(63.623047 0.684375)"/>
       <use xlink:href="#DejaVuSans-2212" transform="translate(128.203125 38.965625) scale(0.7)"/>
       <use xlink:href="#DejaVuSans-35" transform="translate(186.855469 38.965625) scale(0.7)"/>
      </g>
     </g>
    </g>
    <g id="ytick_7">
     <g id="line2d_26">
      <defs>
       <path id="mc9f80eb416" d="M 0 0 
L -2 0 
" style="stroke: #000000; stroke-width: 0.6"/>
      </defs>
      <g>
       <use xlink:href="#mc9f80eb416" x="52.160938" y="284.006538" style="stroke: #000000; stroke-width: 0.6"/>
      </g>
     </g>
    </g>
    <g id="ytick_8">
     <g id="line2d_27">
      <g>
       <use xlink:href="#mc9f80eb416" x="52.160938" y="279.543937" style="stroke: #000000; stroke-width: 0.6"/>
      </g>
     </g>
    </g>
    <g id="ytick_9">
     <g id="line2d_28">
      <g>
       <use xlink:href="#mc9f80eb416" x="52.160938" y="276.082475" style="stroke: #000000; stroke-width: 0.6"/>
      </g>
     </g>
    </g>
    <g id="ytick_10">
     <g id="line2d_29">
      <g>
       <use xlink:href="#mc9f80eb416" x="52.160938" y="273.254254" style="stroke: #000000; stroke-width: 0.6"/>
      </g>
     </g>
    </g>
    <g id="ytick_11">
     <g id="line2d_30">
      <g>
       <use xlink:href="#mc9f80eb416" x="52.160938" y="270.863028" style="stroke: #000000; stroke-width: 0.6"/>
      </g>
     </g>
    </g>
    <g id="ytick_12">
     <g id="line2d_31">
      <g>
       <use xlink:href="#mc9f80eb416" x="52.160938" y="268.791653" style="stroke: #000000; stroke-width: 0.6"/>
      </g>
     </g>
    </g>
    <g id="ytick_13">
     <g id="line2d_32">
      <g>
       <use xlink:href="#mc9f80eb416" x="52.160938" y="266.964571" style="stroke: #000000; stroke-width: 0.6"/>
      </g>
     </g>
    </g>
    <g id="ytick_14">
     <g id="line2d_33">
      <g>
       <use xlink:href="#mc9f80eb416" x="52.160938" y="254.577906" style="stroke: #000000; stroke-width: 0.6"/>
      </g>
     </g>
    </g>
    <g id="ytick_15">
     <g id="line2d_34">
      <g>
       <use xlink:href="#mc9f80eb416" x="52.160938" y="248.288223" style="stroke: #000000; stroke-width: 0.6"/>
      </g>
     </g>
    </g>
    <g id="ytick_16">
     <g id="line2d_35">
      <g>
       <use xlink:href="#mc9f80eb416" x="52.160938" y="243.825622" style="stroke: #000000; stroke-width: 0.6"/>
      </g>
     </g>
    </g>
    <g id="ytick_17">
     <g id="line2d_36">
      <g>
       <use xlink:href="#mc9f80eb416" x="52.160938" y="240.36416" style="stroke: #000000; stroke-width: 0.6"/>
      </g>
     </g>
    </g>
    <g id="ytick_18">
     <g id="line2d_37">
      <g>
       <use xlink:href="#mc9f80eb416" x="52.160938" y="237.535939" style="stroke: #000000; stroke-width: 0.6"/>
      </g>
     </g>
    </g>
    <g id="ytick_19">
     <g id="line2d_38">
      <g>
       <use xlink:href="#mc9f80eb416" x="52.160938" y="235.144712" style="stroke: #000000; stroke-width: 0.6"/>
      </g>
     </g>
    </g>
    <g id="ytick_20">
     <g id="line2d_39">
      <g>
       <use xlink:href="#mc9f80eb416" x="52.160938" y="233.073338" style="stroke: #000000; stroke-width: 0.6"/>
      </g>
     </g>
    </g>
    <g id="ytick_21">
     <g id="line2d_40">
      <g>
       <use xlink:href="#mc9f80eb416" x="52.160938" y="231.246256" style="stroke: #000000; stroke-width: 0.6"/>
      </g>
     </g>
    </g>
    <g id="ytick_22">
     <g id="line2d_41">
      <g>
       <use xlink:href="#mc9f80eb416" x="52.160938" y="218.859591" style="stroke: #000000; stroke-width: 0.6"/>
      </g>
     </g>
    </g>
    <g id="ytick_23">
     <g id="line2d_42">
      <g>
       <use xlink:href="#mc9f80eb416" x="52.160938" y="212.569908" style="stroke: #000000; stroke-width: 0.6"/>
      </g>
     </g>
    </g>
    <g id="ytick_24">
     <g id="line2d_43">
      <g>
       <use xlink:href="#mc9f80eb416" x="52.160938" y="208.107307" style="stroke: #000000; stroke-width: 0.6"/>
      </g>
     </g>
    </g>
    <g id="ytick_25">
     <g id="line2d_44">
      <g>
       <use xlink:href="#mc9f80eb416" x="52.160938" y="204.645844" style="stroke: #000000; stroke-width: 0.6"/>
      </g>
     </g>
    </g>
    <g id="ytick_26">
     <g id="line2d_45">
      <g>
       <use xlink:href="#mc9f80eb416" x="52.160938" y="201.817624" style="stroke: #000000; stroke-width: 0.6"/>
      </g>
     </g>
    </g>
    <g id="ytick_27">
     <g id="line2d_46">
      <g>
       <use xlink:href="#mc9f80eb416" x="52.160938" y="199.426397" style="stroke: #000000; stroke-width: 0.6"/>
      </g>
     </g>
    </g>
    <g id="ytick_28">
     <g id="line2d_47">
      <g>
       <use xlink:href="#mc9f80eb416" x="52.160938" y="197.355023" style="stroke: #000000; stroke-width: 0.6"/>
      </g>
     </g>
    </g>
    <g id="ytick_29">
     <g id="line2d_48">
      <g>
       <use xlink:href="#mc9f80eb416" x="52.160938" y="195.527941" style="stroke: #000000; stroke-width: 0.6"/>
      </g>
     </g>
    </g>
    <g id="ytick_30">
     <g id="line2d_49">
      <g>
       <use xlink:href="#mc9f80eb416" x="52.160938" y="183.141276" style="stroke: #000000; stroke-width: 0.6"/>
      </g>
     </g>
    </g>
    <g id="ytick_31">
     <g id="line2d_50">
      <g>
       <use xlink:href="#mc9f80eb416" x="52.160938" y="176.851593" style="stroke: #000000; stroke-width: 0.6"/>
      </g>
     </g>
    </g>
    <g id="ytick_32">
     <g id="line2d_51">
      <g>
       <use xlink:href="#mc9f80eb416" x="52.160938" y="172.388992" style="stroke: #000000; stroke-width: 0.6"/>
      </g>
     </g>
    </g>
    <g id="ytick_33">
     <g id="line2d_52">
      <g>
       <use xlink:href="#mc9f80eb416" x="52.160938" y="168.927529" style="stroke: #000000; stroke-width: 0.6"/>
      </g>
     </g>
    </g>
    <g id="ytick_34">
     <g id="line2d_53">
      <g>
       <use xlink:href="#mc9f80eb416" x="52.160938" y="166.099308" style="stroke: #000000; stroke-width: 0.6"/>
      </g>
     </g>
    </g>
    <g id="ytick_35">
     <g id="line2d_54">
      <g>
       <use xlink:href="#mc9f80eb416" x="52.160938" y="163.708082" style="stroke: #000000; stroke-width: 0.6"/>
      </g>
     </g>
    </g>
    <g id="ytick_36">
     <g id="line2d_55">
      <g>
       <use xlink:href="#mc9f80eb416" x="52.160938" y="161.636707" style="stroke: #000000; stroke-width: 0.6"/>
      </g>
     </g>
    </g>
    <g id="ytick_37">
     <g id="line2d_56">
      <g>
       <use xlink:href="#mc9f80eb416" x="52.160938" y="159.809625" style="stroke: #000000; stroke-width: 0.6"/>
      </g>
     </g>
    </g>
    <g id="text_28">
     <!-- Absolute error -->
     <g transform="translate(15.58125 256.944531) rotate(-90) scale(0.1 -0.1)">
      <defs>
       <path id="DejaVuSans-41" d="M 2188 4044 
L 1331 1722 
L 3047 1722 
L 2188 4044 
z
M 1831 4666 
L 2547 4666 
L 4325 0 
L 3669 0 
L 3244 1197 
L 1141 1197 
L 716 0 
L 50 0 
L 1831 4666 
z
" transform="scale(0.015625)"/>
       <path id="DejaVuSans-62" d="M 3116 1747 
Q 3116 2381 2855 2742 
Q 2594 3103 2138 3103 
Q 1681 3103 1420 2742 
Q 1159 2381 1159 1747 
Q 1159 1113 1420 752 
Q 1681 391 2138 391 
Q 2594 391 2855 752 
Q 3116 1113 3116 1747 
z
M 1159 2969 
Q 1341 3281 1617 3432 
Q 1894 3584 2278 3584 
Q 2916 3584 3314 3078 
Q 3713 2572 3713 1747 
Q 3713 922 3314 415 
Q 2916 -91 2278 -91 
Q 1894 -91 1617 61 
Q 1341 213 1159 525 
L 1159 0 
L 581 0 
L 581 4863 
L 1159 4863 
L 1159 2969 
z
" transform="scale(0.015625)"/>
       <path id="DejaVuSans-73" d="M 2834 3397 
L 2834 2853 
Q 2591 2978 2328 3040 
Q 2066 3103 1784 3103 
Q 1356 3103 1142 2972 
Q 928 2841 928 2578 
Q 928 2378 1081 2264 
Q 1234 2150 1697 2047 
L 1894 2003 
Q 2506 1872 2764 1633 
Q 3022 1394 3022 966 
Q 3022 478 2636 193 
Q 2250 -91 1575 -91 
Q 1294 -91 989 -36 
Q 684 19 347 128 
L 347 722 
Q 666 556 975 473 
Q 1284 391 1588 391 
Q 1994 391 2212 530 
Q 2431 669 2431 922 
Q 2431 1156 2273 1281 
Q 2116 1406 1581 1522 
L 1381 1569 
Q 847 1681 609 1914 
Q 372 2147 372 2553 
Q 372 3047 722 3315 
Q 1072 3584 1716 3584 
Q 2034 3584 2315 3537 
Q 2597 3491 2834 3397 
z
" transform="scale(0.015625)"/>
       <path id="DejaVuSans-6f" d="M 1959 3097 
Q 1497 3097 1228 2736 
Q 959 2375 959 1747 
Q 959 1119 1226 758 
Q 1494 397 1959 397 
Q 2419 397 2687 759 
Q 2956 1122 2956 1747 
Q 2956 2369 2687 2733 
Q 2419 3097 1959 3097 
z
M 1959 3584 
Q 2709 3584 3137 3096 
Q 3566 2609 3566 1747 
Q 3566 888 3137 398 
Q 2709 -91 1959 -91 
Q 1206 -91 779 398 
Q 353 888 353 1747 
Q 353 2609 779 3096 
Q 1206 3584 1959 3584 
z
" transform="scale(0.015625)"/>
       <path id="DejaVuSans-6c" d="M 603 4863 
L 1178 4863 
L 1178 0 
L 603 0 
L 603 4863 
z
" transform="scale(0.015625)"/>
       <path id="DejaVuSans-75" d="M 544 1381 
L 544 3500 
L 1119 3500 
L 1119 1403 
Q 1119 906 1312 657 
Q 1506 409 1894 409 
Q 2359 409 2629 706 
Q 2900 1003 2900 1516 
L 2900 3500 
L 3475 3500 
L 3475 0 
L 2900 0 
L 2900 538 
Q 2691 219 2414 64 
Q 2138 -91 1772 -91 
Q 1169 -91 856 284 
Q 544 659 544 1381 
z
M 1991 3584 
L 1991 3584 
z
" transform="scale(0.015625)"/>
       <path id="DejaVuSans-65" d="M 3597 1894 
L 3597 1613 
L 953 1613 
Q 991 1019 1311 708 
Q 1631 397 2203 397 
Q 2534 397 2845 478 
Q 3156 559 3463 722 
L 3463 178 
Q 3153 47 2828 -22 
Q 2503 -91 2169 -91 
Q 1331 -91 842 396 
Q 353 884 353 1716 
Q 353 2575 817 3079 
Q 1281 3584 2069 3584 
Q 2775 3584 3186 3129 
Q 3597 2675 3597 1894 
z
M 3022 2063 
Q 3016 2534 2758 2815 
Q 2500 3097 2075 3097 
Q 1594 3097 1305 2825 
Q 1016 2553 972 2059 
L 3022 2063 
z
" transform="scale(0.015625)"/>
       <path id="DejaVuSans-20" transform="scale(0.015625)"/>
       <path id="DejaVuSans-72" d="M 2631 2963 
Q 2534 3019 2420 3045 
Q 2306 3072 2169 3072 
Q 1681 3072 1420 2755 
Q 1159 2438 1159 1844 
L 1159 0 
L 581 0 
L 581 3500 
L 1159 3500 
L 1159 2956 
Q 1341 3275 1631 3429 
Q 1922 3584 2338 3584 
Q 2397 3584 2469 3576 
Q 2541 3569 2628 3553 
L 2631 2963 
z
" transform="scale(0.015625)"/>
      </defs>
      <use xlink:href="#DejaVuSans-41"/>
      <use xlink:href="#DejaVuSans-62" x="68.408203"/>
      <use xlink:href="#DejaVuSans-73" x="131.884766"/>
      <use xlink:href="#DejaVuSans-6f" x="183.984375"/>
      <use xlink:href="#DejaVuSans-6c" x="245.166016"/>
      <use xlink:href="#DejaVuSans-75" x="272.949219"/>
      <use xlink:href="#DejaVuSans-74" x="336.328125"/>
      <use xlink:href="#DejaVuSans-65" x="375.537109"/>
      <use xlink:href="#DejaVuSans-20" x="437.060547"/>
      <use xlink:href="#DejaVuSans-65" x="468.847656"/>
      <use xlink:href="#DejaVuSans-72" x="530.371094"/>
      <use xlink:href="#DejaVuSans-72" x="569.734375"/>
      <use xlink:href="#DejaVuSans-6f" x="608.597656"/>
      <use xlink:href="#DejaVuSans-72" x="669.779297"/>
     </g>
    </g>
   </g>
   <g id="line2d_57">
    <path d="M 76.54276 322.95625 
L 76.55102 251.453694 
L 80.650194 229.726061 
L 84.749367 218.257919 
L 88.848541 211.097211 
L 92.947714 206.459741 
L 97.046888 203.585333 
L 101.146061 202.109807 
L 105.245235 201.877527 
L 109.344409 202.890126 
L 113.443582 205.339378 
L 117.542756 209.791597 
L 121.641929 218.006667 
L 125.741103 241.514316 
L 129.840276 226.232747 
L 133.93945 213.098055 
L 138.038623 206.607444 
L 142.137797 202.660855 
L 146.236971 200.17458 
L 150.336144 198.702694 
L 154.435318 198.024158 
L 158.534491 198.021366 
L 162.633665 198.634857 
L 166.732838 199.845142 
L 170.832012 201.667402 
L 174.931185 204.155498 
L 179.030359 207.417783 
L 183.129533 211.65637 
L 187.228706 217.269164 
L 191.32788 225.176935 
L 195.427053 238.469078 
L 199.526227 274.746962 
L 203.6254 240.038282 
L 207.724574 233.132884 
L 211.823747 230.964251 
L 215.922921 231.583852 
L 220.022095 234.985781 
L 224.121268 243.101641 
L 228.220442 278.672727 
L 232.319615 243.989045 
L 236.418789 231.80716 
L 240.517962 224.971265 
L 244.617136 220.366398 
L 248.716309 217.053415 
L 252.815483 214.614206 
L 256.914657 212.822366 
L 261.01383 211.5392 
L 265.113004 210.671829 
L 269.212177 210.15338 
L 273.311351 209.932429 
L 277.410524 209.966792 
L 281.509698 210.219531 
L 285.608871 210.656171 
L 289.708045 211.242664 
L 293.807218 211.943875 
L 297.906392 212.722604 
L 302.005566 213.539211 
L 306.104739 214.352055 
L 310.203913 215.118919 
L 314.303086 215.799465 
L 318.40226 216.358501 
L 322.501433 216.769486 
L 326.600607 217.017391 
L 330.69978 217.100086 
L 334.798954 217.027771 
L 338.898128 216.820607 
L 342.997301 216.50523 
L 347.096475 216.111042 
L 351.195648 215.667021 
L 355.294822 215.199447 
L 359.393995 214.73058 
L 363.493169 214.278157 
L 367.592342 213.855436 
L 371.691516 213.471578 
L 375.79069 213.132176 
L 379.889863 212.83983 
L 383.989037 212.5947 
L 388.08821 212.395002 
L 392.187384 212.237445 
L 396.286557 212.117623 
L 400.385731 212.030344 
L 404.484904 211.969935 
L 408.584078 211.930509 
L 412.683252 211.906204 
L 416.782425 211.891402 
L 420.881599 211.880914 
L 424.980772 211.870134 
L 429.079946 211.855163 
L 433.179119 211.832885 
L 437.278293 211.801003 
L 441.377466 211.758039 
L 445.47664 211.703283 
L 449.575814 211.636722 
L 453.674987 211.558931 
L 457.774161 211.470961 
L 461.873334 211.374202 
L 465.972508 211.27027 
L 470.071681 211.160882 
L 474.170855 211.047758 
L 478.270028 210.932535 
" clip-path="url(#pfe7a27bcaa)" style="fill: none; stroke: #1f77b4; stroke-width: 1.5; stroke-linecap: square"/>
   </g>
   <g id="line2d_58">
    <path d="M 76.54276 322.95625 
L 76.55102 251.453694 
L 80.650194 229.726061 
L 84.749367 218.257919 
L 88.848541 211.097211 
L 92.947714 206.459741 
L 97.046888 203.585333 
L 101.146061 202.109807 
L 105.245235 201.877527 
L 109.344409 202.890126 
L 113.443582 205.339378 
L 117.542756 209.791597 
L 121.641929 218.006667 
L 125.741103 241.514316 
L 129.840276 226.232747 
L 133.93945 213.098055 
L 138.038623 206.607444 
L 142.137797 202.660855 
L 146.236971 200.17458 
L 150.336144 198.702694 
L 154.435318 198.024158 
L 158.534491 198.021366 
L 162.633665 198.634857 
L 166.732838 199.845142 
L 170.832012 201.667402 
L 174.931185 204.155498 
L 179.030359 207.417783 
L 183.129533 211.65637 
L 187.228706 217.269164 
L 191.32788 225.176935 
L 195.427053 238.469078 
L 199.526227 274.746962 
L 203.6254 240.038282 
L 207.724574 233.132884 
L 211.823747 230.964251 
L 215.922921 231.583852 
L 220.022095 234.985781 
L 224.121268 243.101641 
L 228.220442 278.672727 
L 232.319615 243.989045 
L 236.418789 231.80716 
L 240.517962 224.971265 
L 244.617136 220.366398 
L 248.716309 217.053415 
L 252.815483 214.614206 
L 256.914657 212.822366 
L 261.01383 211.5392 
L 265.113004 210.671829 
L 269.212177 210.15338 
L 273.311351 209.932429 
L 277.410524 209.966792 
L 281.509698 210.219531 
L 285.608871 210.656171 
L 289.708045 211.242664 
L 293.807218 211.943875 
L 297.906392 212.722604 
L 302.005566 213.539211 
L 306.104739 214.352055 
L 310.203913 215.118919 
L 314.303086 215.799465 
L 318.40226 216.358501 
L 322.501433 216.769486 
L 326.600607 217.017391 
L 330.69978 217.100086 
L 334.798954 217.027771 
L 338.898128 216.820607 
L 342.997301 216.50523 
L 347.096475 216.111042 
L 351.195648 215.667021 
L 355.294822 215.199447 
L 359.393995 214.73058 
L 363.493169 214.278157 
L 367.592342 213.855436 
L 371.691516 213.471578 
L 375.79069 213.132176 
L 379.889863 212.83983 
L 383.989037 212.5947 
L 388.08821 212.395002 
L 392.187384 212.237445 
L 396.286557 212.117623 
L 400.385731 212.030344 
L 404.484904 211.969935 
L 408.584078 211.930509 
L 412.683252 211.906204 
L 416.782425 211.891402 
L 420.881599 211.880914 
L 424.980772 211.870134 
L 429.079946 211.855163 
L 433.179119 211.832885 
L 437.278293 211.801003 
L 441.377466 211.758039 
L 445.47664 211.703283 
L 449.575814 211.636722 
L 453.674987 211.558931 
L 457.774161 211.470961 
L 461.873334 211.374202 
L 465.972508 211.27027 
L 470.071681 211.160882 
L 474.170855 211.047758 
L 478.270028 210.932535 
" clip-path="url(#pfe7a27bcaa)" style="fill: none; stroke: #ff7f0e; stroke-width: 1.5; stroke-linecap: square"/>
   </g>
   <g id="line2d_59">
    <path d="M 76.53592 322.95625 
L 76.55102 192.031334 
L 80.650194 211.994805 
L 84.749367 188.743174 
L 88.848541 190.921654 
L 92.947714 168.935368 
L 97.046888 182.550168 
L 101.146061 164.224994 
L 105.245235 179.875381 
L 109.344409 165.643526 
L 113.443582 181.486263 
L 117.542756 173.807201 
L 121.641929 188.309428 
L 125.741103 223.369659 
L 129.840276 211.173962 
L 133.93945 175.574954 
L 138.038623 197.15961 
L 142.137797 166.821158 
L 146.236971 185.290271 
L 150.336144 164.127273 
L 154.435318 180.878803 
L 158.534491 164.882986 
L 162.633665 179.788897 
L 166.732838 168.735384 
L 170.832012 181.019803 
L 174.931185 176.709518 
L 179.030359 184.308491 
L 183.129533 195.260768 
L 187.228706 189.779368 
L 191.32788 196.733354 
L 195.427053 197.990342 
L 199.526227 183.605808 
L 203.6254 210.370419 
L 207.724574 180.847002 
L 211.823747 230.801352 
L 215.922921 182.842957 
L 220.022095 254.043455 
L 224.121268 189.995455 
L 228.220442 228.653995 
L 232.319615 212.88972 
L 236.418789 212.407917 
L 240.517962 199.22331 
L 244.617136 203.009511 
L 248.716309 187.140979 
L 252.815483 197.130649 
L 256.914657 182.325273 
L 261.01383 193.420485 
L 265.113004 180.542026 
L 269.212177 191.202324 
L 273.311351 180.663044 
L 277.410524 190.0709 
L 281.509698 182.197323 
L 285.608871 189.740321 
L 289.708045 184.835516 
L 293.807218 189.975068 
L 297.906392 188.259795 
L 302.005566 190.55641 
L 306.104739 191.985554 
L 310.203913 191.271253 
L 314.303086 195.238268 
L 318.40226 191.921403 
L 322.501433 197.092351 
L 326.600607 192.349711 
L 330.69978 197.067795 
L 334.798954 192.469665 
L 338.898128 195.556874 
L 342.997301 192.277996 
L 347.096475 193.39065 
L 351.195648 191.839169 
L 355.294822 191.231679 
L 359.393995 191.250893 
L 363.493169 189.419566 
L 367.592342 190.610101 
L 371.691516 188.068465 
L 375.79069 189.992081 
L 379.889863 187.173731 
L 383.989037 189.443656 
L 388.08821 186.673782 
L 392.187384 188.985335 
L 396.286557 186.480493 
L 400.385731 188.617326 
L 404.484904 186.494864 
L 408.584078 188.32634 
L 412.683252 186.617766 
L 416.782425 188.091844 
L 420.881599 186.759936 
L 424.980772 187.891283 
L 429.079946 186.851562 
L 433.179119 187.704069 
L 437.278293 186.849324 
L 441.377466 187.514219 
L 445.47664 186.738333 
L 449.575814 187.311608 
L 453.674987 186.52805 
L 457.774161 187.091943 
L 461.873334 186.243834 
L 465.972508 186.855761 
L 470.071681 185.917293 
L 474.170855 186.606874 
L 478.270028 185.578306 
" clip-path="url(#pfe7a27bcaa)" style="fill: none; stroke: #2ca02c; stroke-width: 1.5; stroke-linecap: square"/>
   </g>
   <g id="line2d_60">
    <path d="M 76.538387 322.95625 
L 76.55102 213.485374 
L 80.650194 219.957749 
L 84.749367 220.80961 
L 88.848541 224.347011 
L 92.947714 224.748178 
L 97.046888 229.562122 
L 101.146061 220.198282 
L 105.245235 222.220087 
L 109.344409 224.753912 
L 113.443582 226.999037 
L 117.542756 229.873143 
L 121.641929 232.229294 
L 125.741103 234.604107 
L 129.840276 236.538115 
L 133.93945 237.854977 
L 138.038623 238.513876 
L 142.137797 238.465222 
L 146.236971 237.853948 
L 150.336144 236.850159 
L 154.435318 235.635388 
L 158.534491 234.359888 
L 162.633665 233.127594 
L 166.732838 232.005658 
L 170.832012 231.031678 
L 174.931185 230.22348 
L 179.030359 229.585895 
L 183.129533 229.115307 
L 187.228706 228.802715 
L 191.32788 228.635518 
L 195.427053 228.598628 
L 199.526227 228.675123 
L 203.6254 228.846673 
L 207.724574 229.093881 
L 211.823747 229.396634 
L 215.922921 229.73455 
L 220.022095 230.087541 
L 224.121268 230.43651 
L 228.220442 230.764142 
L 232.319615 231.055712 
L 236.418789 231.299792 
L 240.517962 231.488769 
L 244.617136 231.619057 
L 248.716309 231.690967 
L 252.815483 231.708254 
L 256.914657 231.677415 
L 261.01383 231.606846 
L 265.113004 231.505971 
L 269.212177 231.384447 
L 273.311351 231.251513 
L 277.410524 231.115504 
L 281.509698 230.983536 
L 285.608871 230.861338 
L 289.708045 230.75321 
L 293.807218 230.662067 
L 297.906392 230.589545 
L 302.005566 230.536146 
L 306.104739 230.501404 
L 310.203913 230.484064 
L 314.303086 230.482262 
L 318.40226 230.493693 
L 322.501433 230.515782 
L 326.600607 230.545832 
L 330.69978 230.581162 
L 334.798954 230.619227 
L 338.898128 230.657711 
L 342.997301 230.694612 
L 347.096475 230.728284 
L 351.195648 230.757472 
L 355.294822 230.781319 
L 359.393995 230.799348 
L 363.493169 230.811433 
L 367.592342 230.817755 
L 371.691516 230.818745 
L 375.79069 230.815029 
L 379.889863 230.807364 
L 383.989037 230.796584 
L 388.08821 230.783544 
L 392.187384 230.769076 
L 396.286557 230.753954 
L 400.385731 230.73886 
L 404.484904 230.724374 
L 408.584078 230.710955 
L 412.683252 230.698941 
L 416.782425 230.688554 
L 420.881599 230.679902 
L 424.980772 230.673 
L 429.079946 230.667775 
L 433.179119 230.664089 
L 437.278293 230.661754 
L 441.377466 230.660547 
L 445.47664 230.66023 
L 449.575814 230.660556 
L 453.674987 230.661289 
L 457.774161 230.662212 
L 461.873334 230.663129 
L 465.972508 230.663877 
L 470.071681 230.664327 
L 474.170855 230.664382 
L 478.270028 230.663979 
" clip-path="url(#pfe7a27bcaa)" style="fill: none; stroke: #d62728; stroke-width: 1.5; stroke-linecap: square"/>
   </g>
   <g id="patch_8">
    <path d="M 52.160938 284.4 
L 52.160938 158.4 
" style="fill: none; stroke: #000000; stroke-width: 0.8; stroke-linejoin: miter; stroke-linecap: square"/>
   </g>
   <g id="patch_9">
    <path d="M 498.560937 284.4 
L 498.560937 158.4 
" style="fill: none; stroke: #000000; stroke-width: 0.8; stroke-linejoin: miter; stroke-linecap: square"/>
   </g>
   <g id="patch_10">
    <path d="M 52.160938 284.4 
L 498.560937 284.4 
" style="fill: none; stroke: #000000; stroke-width: 0.8; stroke-linejoin: miter; stroke-linecap: square"/>
   </g>
   <g id="patch_11">
    <path d="M 52.160938 158.4 
L 498.560937 158.4 
" style="fill: none; stroke: #000000; stroke-width: 0.8; stroke-linejoin: miter; stroke-linecap: square"/>
   </g>
   <g id="legend_1">
    <g id="patch_12">
     <path d="M 405.110937 225.1125 
L 491.560937 225.1125 
Q 493.560937 225.1125 493.560937 223.1125 
L 493.560937 165.4 
Q 493.560937 163.4 491.560937 163.4 
L 405.110937 163.4 
Q 403.110937 163.4 403.110937 165.4 
L 403.110937 223.1125 
Q 403.110937 225.1125 405.110937 225.1125 
z
" style="fill: #ffffff; opacity: 0.8; stroke: #cccccc; stroke-linejoin: miter"/>
    </g>
    <g id="line2d_61">
     <path d="M 407.110937 171.498438 
L 417.110937 171.498438 
L 427.110937 171.498438 
" style="fill: none; stroke: #1f77b4; stroke-width: 1.5; stroke-linecap: square"/>
    </g>
    <g id="text_29">
     <!-- Midpoint -->
     <g transform="translate(435.110937 174.998438) scale(0.1 -0.1)">
      <defs>
       <path id="DejaVuSans-4d" d="M 628 4666 
L 1569 4666 
L 2759 1491 
L 3956 4666 
L 4897 4666 
L 4897 0 
L 4281 0 
L 4281 4097 
L 3078 897 
L 2444 897 
L 1241 4097 
L 1241 0 
L 628 0 
L 628 4666 
z
" transform="scale(0.015625)"/>
       <path id="DejaVuSans-69" d="M 603 3500 
L 1178 3500 
L 1178 0 
L 603 0 
L 603 3500 
z
M 603 4863 
L 1178 4863 
L 1178 4134 
L 603 4134 
L 603 4863 
z
" transform="scale(0.015625)"/>
       <path id="DejaVuSans-64" d="M 2906 2969 
L 2906 4863 
L 3481 4863 
L 3481 0 
L 2906 0 
L 2906 525 
Q 2725 213 2448 61 
Q 2172 -91 1784 -91 
Q 1150 -91 751 415 
Q 353 922 353 1747 
Q 353 2572 751 3078 
Q 1150 3584 1784 3584 
Q 2172 3584 2448 3432 
Q 2725 3281 2906 2969 
z
M 947 1747 
Q 947 1113 1208 752 
Q 1469 391 1925 391 
Q 2381 391 2643 752 
Q 2906 1113 2906 1747 
Q 2906 2381 2643 2742 
Q 2381 3103 1925 3103 
Q 1469 3103 1208 2742 
Q 947 2381 947 1747 
z
" transform="scale(0.015625)"/>
       <path id="DejaVuSans-70" d="M 1159 525 
L 1159 -1331 
L 581 -1331 
L 581 3500 
L 1159 3500 
L 1159 2969 
Q 1341 3281 1617 3432 
Q 1894 3584 2278 3584 
Q 2916 3584 3314 3078 
Q 3713 2572 3713 1747 
Q 3713 922 3314 415 
Q 2916 -91 2278 -91 
Q 1894 -91 1617 61 
Q 1341 213 1159 525 
z
M 3116 1747 
Q 3116 2381 2855 2742 
Q 2594 3103 2138 3103 
Q 1681 3103 1420 2742 
Q 1159 2381 1159 1747 
Q 1159 1113 1420 752 
Q 1681 391 2138 391 
Q 2594 391 2855 752 
Q 3116 1113 3116 1747 
z
" transform="scale(0.015625)"/>
       <path id="DejaVuSans-6e" d="M 3513 2113 
L 3513 0 
L 2938 0 
L 2938 2094 
Q 2938 2591 2744 2837 
Q 2550 3084 2163 3084 
Q 1697 3084 1428 2787 
Q 1159 2491 1159 1978 
L 1159 0 
L 581 0 
L 581 3500 
L 1159 3500 
L 1159 2956 
Q 1366 3272 1645 3428 
Q 1925 3584 2291 3584 
Q 2894 3584 3203 3211 
Q 3513 2838 3513 2113 
z
" transform="scale(0.015625)"/>
      </defs>
      <use xlink:href="#DejaVuSans-4d"/>
      <use xlink:href="#DejaVuSans-69" x="86.279297"/>
      <use xlink:href="#DejaVuSans-64" x="114.0625"/>
      <use xlink:href="#DejaVuSans-70" x="177.539062"/>
      <use xlink:href="#DejaVuSans-6f" x="241.015625"/>
      <use xlink:href="#DejaVuSans-69" x="302.197266"/>
      <use xlink:href="#DejaVuSans-6e" x="329.980469"/>
      <use xlink:href="#DejaVuSans-74" x="393.359375"/>
     </g>
    </g>
    <g id="line2d_62">
     <path d="M 407.110937 186.176563 
L 417.110937 186.176563 
L 427.110937 186.176563 
" style="fill: none; stroke: #ff7f0e; stroke-width: 1.5; stroke-linecap: square"/>
    </g>
    <g id="text_30">
     <!-- Trapezoid -->
     <g transform="translate(435.110937 189.676563) scale(0.1 -0.1)">
      <defs>
       <path id="DejaVuSans-54" d="M -19 4666 
L 3928 4666 
L 3928 4134 
L 2272 4134 
L 2272 0 
L 1638 0 
L 1638 4134 
L -19 4134 
L -19 4666 
z
" transform="scale(0.015625)"/>
       <path id="DejaVuSans-61" d="M 2194 1759 
Q 1497 1759 1228 1600 
Q 959 1441 959 1056 
Q 959 750 1161 570 
Q 1363 391 1709 391 
Q 2188 391 2477 730 
Q 2766 1069 2766 1631 
L 2766 1759 
L 2194 1759 
z
M 3341 1997 
L 3341 0 
L 2766 0 
L 2766 531 
Q 2569 213 2275 61 
Q 1981 -91 1556 -91 
Q 1019 -91 701 211 
Q 384 513 384 1019 
Q 384 1609 779 1909 
Q 1175 2209 1959 2209 
L 2766 2209 
L 2766 2266 
Q 2766 2663 2505 2880 
Q 2244 3097 1772 3097 
Q 1472 3097 1187 3025 
Q 903 2953 641 2809 
L 641 3341 
Q 956 3463 1253 3523 
Q 1550 3584 1831 3584 
Q 2591 3584 2966 3190 
Q 3341 2797 3341 1997 
z
" transform="scale(0.015625)"/>
       <path id="DejaVuSans-7a" d="M 353 3500 
L 3084 3500 
L 3084 2975 
L 922 459 
L 3084 459 
L 3084 0 
L 275 0 
L 275 525 
L 2438 3041 
L 353 3041 
L 353 3500 
z
" transform="scale(0.015625)"/>
      </defs>
      <use xlink:href="#DejaVuSans-54"/>
      <use xlink:href="#DejaVuSans-72" x="46.333984"/>
      <use xlink:href="#DejaVuSans-61" x="87.447266"/>
      <use xlink:href="#DejaVuSans-70" x="148.726562"/>
      <use xlink:href="#DejaVuSans-65" x="212.203125"/>
      <use xlink:href="#DejaVuSans-7a" x="273.726562"/>
      <use xlink:href="#DejaVuSans-6f" x="326.216797"/>
      <use xlink:href="#DejaVuSans-69" x="387.398438"/>
      <use xlink:href="#DejaVuSans-64" x="415.181641"/>
     </g>
    </g>
    <g id="line2d_63">
     <path d="M 407.110937 200.854688 
L 417.110937 200.854688 
L 427.110937 200.854688 
" style="fill: none; stroke: #2ca02c; stroke-width: 1.5; stroke-linecap: square"/>
    </g>
    <g id="text_31">
     <!-- Simpson -->
     <g transform="translate(435.110937 204.354688) scale(0.1 -0.1)">
      <defs>
       <path id="DejaVuSans-53" d="M 3425 4513 
L 3425 3897 
Q 3066 4069 2747 4153 
Q 2428 4238 2131 4238 
Q 1616 4238 1336 4038 
Q 1056 3838 1056 3469 
Q 1056 3159 1242 3001 
Q 1428 2844 1947 2747 
L 2328 2669 
Q 3034 2534 3370 2195 
Q 3706 1856 3706 1288 
Q 3706 609 3251 259 
Q 2797 -91 1919 -91 
Q 1588 -91 1214 -16 
Q 841 59 441 206 
L 441 856 
Q 825 641 1194 531 
Q 1563 422 1919 422 
Q 2459 422 2753 634 
Q 3047 847 3047 1241 
Q 3047 1584 2836 1778 
Q 2625 1972 2144 2069 
L 1759 2144 
Q 1053 2284 737 2584 
Q 422 2884 422 3419 
Q 422 4038 858 4394 
Q 1294 4750 2059 4750 
Q 2388 4750 2728 4690 
Q 3069 4631 3425 4513 
z
" transform="scale(0.015625)"/>
       <path id="DejaVuSans-6d" d="M 3328 2828 
Q 3544 3216 3844 3400 
Q 4144 3584 4550 3584 
Q 5097 3584 5394 3201 
Q 5691 2819 5691 2113 
L 5691 0 
L 5113 0 
L 5113 2094 
Q 5113 2597 4934 2840 
Q 4756 3084 4391 3084 
Q 3944 3084 3684 2787 
Q 3425 2491 3425 1978 
L 3425 0 
L 2847 0 
L 2847 2094 
Q 2847 2600 2669 2842 
Q 2491 3084 2119 3084 
Q 1678 3084 1418 2786 
Q 1159 2488 1159 1978 
L 1159 0 
L 581 0 
L 581 3500 
L 1159 3500 
L 1159 2956 
Q 1356 3278 1631 3431 
Q 1906 3584 2284 3584 
Q 2666 3584 2933 3390 
Q 3200 3197 3328 2828 
z
" transform="scale(0.015625)"/>
      </defs>
      <use xlink:href="#DejaVuSans-53"/>
      <use xlink:href="#DejaVuSans-69" x="63.476562"/>
      <use xlink:href="#DejaVuSans-6d" x="91.259766"/>
      <use xlink:href="#DejaVuSans-70" x="188.671875"/>
      <use xlink:href="#DejaVuSans-73" x="252.148438"/>
      <use xlink:href="#DejaVuSans-6f" x="304.248047"/>
      <use xlink:href="#DejaVuSans-6e" x="365.429688"/>
     </g>
    </g>
    <g id="line2d_64">
     <path d="M 407.110937 215.532813 
L 417.110937 215.532813 
L 427.110937 215.532813 
" style="fill: none; stroke: #d62728; stroke-width: 1.5; stroke-linecap: square"/>
    </g>
    <g id="text_32">
     <!-- Gregory(7) -->
     <g transform="translate(435.110937 219.032813) scale(0.1 -0.1)">
      <defs>
       <path id="DejaVuSans-47" d="M 3809 666 
L 3809 1919 
L 2778 1919 
L 2778 2438 
L 4434 2438 
L 4434 434 
Q 4069 175 3628 42 
Q 3188 -91 2688 -91 
Q 1594 -91 976 548 
Q 359 1188 359 2328 
Q 359 3472 976 4111 
Q 1594 4750 2688 4750 
Q 3144 4750 3555 4637 
Q 3966 4525 4313 4306 
L 4313 3634 
Q 3963 3931 3569 4081 
Q 3175 4231 2741 4231 
Q 1884 4231 1454 3753 
Q 1025 3275 1025 2328 
Q 1025 1384 1454 906 
Q 1884 428 2741 428 
Q 3075 428 3337 486 
Q 3600 544 3809 666 
z
" transform="scale(0.015625)"/>
       <path id="DejaVuSans-67" d="M 2906 1791 
Q 2906 2416 2648 2759 
Q 2391 3103 1925 3103 
Q 1463 3103 1205 2759 
Q 947 2416 947 1791 
Q 947 1169 1205 825 
Q 1463 481 1925 481 
Q 2391 481 2648 825 
Q 2906 1169 2906 1791 
z
M 3481 434 
Q 3481 -459 3084 -895 
Q 2688 -1331 1869 -1331 
Q 1566 -1331 1297 -1286 
Q 1028 -1241 775 -1147 
L 775 -588 
Q 1028 -725 1275 -790 
Q 1522 -856 1778 -856 
Q 2344 -856 2625 -561 
Q 2906 -266 2906 331 
L 2906 616 
Q 2728 306 2450 153 
Q 2172 0 1784 0 
Q 1141 0 747 490 
Q 353 981 353 1791 
Q 353 2603 747 3093 
Q 1141 3584 1784 3584 
Q 2172 3584 2450 3431 
Q 2728 3278 2906 2969 
L 2906 3500 
L 3481 3500 
L 3481 434 
z
" transform="scale(0.015625)"/>
       <path id="DejaVuSans-79" d="M 2059 -325 
Q 1816 -950 1584 -1140 
Q 1353 -1331 966 -1331 
L 506 -1331 
L 506 -850 
L 844 -850 
Q 1081 -850 1212 -737 
Q 1344 -625 1503 -206 
L 1606 56 
L 191 3500 
L 800 3500 
L 1894 763 
L 2988 3500 
L 3597 3500 
L 2059 -325 
z
" transform="scale(0.015625)"/>
      </defs>
      <use xlink:href="#DejaVuSans-47"/>
      <use xlink:href="#DejaVuSans-72" x="77.490234"/>
      <use xlink:href="#DejaVuSans-65" x="116.353516"/>
      <use xlink:href="#DejaVuSans-67" x="177.876953"/>
      <use xlink:href="#DejaVuSans-6f" x="241.353516"/>
      <use xlink:href="#DejaVuSans-72" x="302.535156"/>
      <use xlink:href="#DejaVuSans-79" x="343.648438"/>
      <use xlink:href="#DejaVuSans-28" x="402.828125"/>
      <use xlink:href="#DejaVuSans-37" x="441.841797"/>
      <use xlink:href="#DejaVuSans-29" x="505.464844"/>
     </g>
    </g>
   </g>
  </g>
 </g>
 <defs>
  <clipPath id="p4d8642876c">
   <rect x="52.160938" y="7.2" width="446.4" height="126"/>
  </clipPath>
  <clipPath id="pfe7a27bcaa">
   <rect x="52.160938" y="158.4" width="446.4" height="126"/>
  </clipPath>
 </defs>
</svg>
