<?xml version="1.0" encoding="UTF-8"?>
<svg enable-background="new 0 0 150 34" focusable="false" version="1.1" viewBox="0 0 150 34" xml:space="preserve" xmlns="http://www.w3.org/2000/svg">
    <g transform="scale(1,-1)">
        <path d="m4.8-23.8c0.1 0 0.2-0.1 0.2-0.1h0.2c0.1 0 0.2 0.1 0.3 0.2s0.2 0.2 0.2 0.4c0.1 0.2 0.2 0.9 0.5 2.1 0.2 1.1 0.4 2.2 0.6 3.2s0.3 1.6 0.3 1.6h-0.7-0.7l-0.1 0.1 0.1 0.4 0.1 0.1h0.6 0.7s0 0.2 0.1 0.7 0.1 0.7 0.2 0.8c0.3 1.5 1 2.2 2 2.2 0.3 0 0.6-0.1 0.8-0.3s0.3-0.4 0.3-0.7-0.1-0.6-0.3-0.7c0-0.1-0.2-0.2-0.4-0.2-0.4 0-0.6 0.2-0.6 0.6 0 0.2 0 0.3 0.1 0.4l0.4 0.4c-0.1 0.1-0.3 0.1-0.4 0.1s-0.2 0-0.3-0.1c0-0.1-0.1-0.3-0.1-0.4-0.1-0.3-0.1-0.6-0.2-1.1-0.1-0.4-0.2-0.8-0.2-1.1-0.1-0.3-0.1-0.5-0.1-0.5s0.2 0 0.7 0h0.7s0.1 0 0.1-0.1v-0.2c0-0.1 0-0.2-0.1-0.2l-0.1-0.1s-0.3 0-0.7 0h-0.8l-0.3-1.7c-0.4-2.2-0.7-3.6-0.9-4.2-0.2-0.8-0.6-1.3-1-1.7-0.3-0.3-0.7-0.4-1-0.4s-0.6 0.1-0.8 0.3-0.4 0.4-0.4 0.7 0.1 0.6 0.3 0.7c0.2 0.2 0.4 0.2 0.6 0.2 0.4 0 0.6-0.2 0.6-0.6 0-0.2 0-0.3-0.1-0.4s-0.2-0.3-0.3-0.3l-0.1-0.1z" />
        <g transform="translate(550)">
            <path d="m-538.1-18.2c0 0.6 0 1.2 0.1 1.8s0.2 1 0.3 1.5c0.1 0.4 0.3 0.8 0.5 1.2s0.4 0.7 0.5 0.9 0.3 0.5 0.6 0.7c0.3 0.3 0.4 0.4 0.4 0.5s0.2 0.1 0.3 0.3h0.3c0.1 0 0.2 0 0.2-0.1 0 0-0.1-0.1-0.2-0.3-0.2-0.2-0.3-0.4-0.6-0.7-0.2-0.3-0.4-0.7-0.7-1.2-0.2-0.5-0.4-1.1-0.6-1.9s-0.2-1.7-0.2-2.6c0-1 0.1-1.8 0.2-2.6 0.2-0.8 0.3-1.4 0.6-1.9 0.2-0.5 0.4-0.9 0.7-1.2s0.4-0.5 0.6-0.7 0.2-0.3 0.2-0.3c0-0.1-0.1-0.1-0.2-0.1h-0.2l-0.4 0.3c-0.9 0.8-1.5 1.7-1.9 2.9-0.3 1.1-0.5 2.3-0.5 3.5z" />
        </g>
        <g transform="translate(939)">
            <path d="m-921.3-17.7c0 0.3 0.1 0.6 0.2 0.9s0.4 0.6 0.8 0.8c0.4 0.3 0.8 0.4 1.3 0.4 0.6 0 1-0.1 1.2-0.4s0.4-0.5 0.4-0.8-0.1-0.5-0.2-0.6-0.3-0.2-0.5-0.2c-0.1 0-0.2 0-0.3 0.1s-0.2 0.2-0.2 0.4c0 0.1 0 0.3 0.1 0.4l0.2 0.2s0.1 0.1 0.2 0.1c0 0 0 0.1-0.1 0.1-0.1 0.1-0.2 0.1-0.3 0.1-0.2 0-0.3 0.1-0.5 0.1-0.4 0-0.8-0.1-1-0.4s-0.3-0.5-0.3-0.7 0.1-0.4 0.3-0.5 0.4-0.2 0.7-0.2 0.6-0.1 0.7-0.2c0.6-0.3 0.9-0.7 0.9-1.3 0-0.3 0-0.5-0.1-0.8s-0.2-0.5-0.4-0.8-0.5-0.5-0.9-0.6-0.8-0.2-1.3-0.2c-0.7 0-1.2 0.1-1.5 0.4s-0.4 0.6-0.4 0.9c0 0.4 0.1 0.6 0.3 0.8s0.4 0.2 0.6 0.2c0.1 0 0.3 0 0.4-0.1s0.2-0.2 0.2-0.4-0.1-0.4-0.2-0.6c-0.2-0.2-0.3-0.2-0.4-0.2 0 0 0-0.1 0.1-0.1s0.2-0.1 0.4-0.2 0.5-0.1 0.7-0.1c0.3 0 0.6 0 0.8 0.1s0.4 0.2 0.5 0.4 0.2 0.3 0.2 0.4 0.1 0.2 0.1 0.3c0 0.3-0.1 0.4-0.3 0.6s-0.4 0.2-0.7 0.2c-0.2 0-0.5 0.1-0.8 0.2s-0.5 0.3-0.6 0.5c-0.2 0.3-0.3 0.5-0.3 0.8z" />
        </g>
        <g transform="translate(1408)">
            <path d="m-1384.9-11.4h0.2 0.2l0.4-0.3c0.9-0.8 1.5-1.7 1.9-2.9s0.6-2.3 0.6-3.6c0-0.6 0-1.2-0.1-1.8s-0.2-1.1-0.3-1.5-0.3-0.8-0.5-1.2-0.4-0.7-0.5-0.9-0.3-0.4-0.6-0.7c-0.2-0.3-0.4-0.4-0.4-0.4l-0.4-0.4h-0.2-0.1-0.1v0.1s0.1 0.1 0.1 0.2c1.4 1.5 2.1 3.6 2.1 6.4s-0.7 5-2.1 6.4c-0.1 0.1-0.1 0.2-0.1 0.2-0.2 0.3-0.2 0.4-0.1 0.4z" />
        </g>
        <g transform="translate(2074.8)">
            <path d="m-2042.7-16.9c0 0.1 0.1 0.2 0.2 0.3h8.6c0.1-0.1 0.2-0.2 0.2-0.3s-0.1-0.2-0.2-0.3h-4.3-4.3c-0.1 0.1-0.2 0.2-0.2 0.3zm0-2.6c0 0.1 0.1 0.2 0.2 0.3h8.6c0.1-0.1 0.2-0.2 0.2-0.3s-0.1-0.2-0.2-0.3h-8.6c-0.1 0.1-0.2 0.2-0.2 0.3z" />
        </g>
        <g transform="translate(3130.6)">
            <g transform="translate(0 1)">
                <path d="m-3083.4-33.4c0.2-0.2 0.4-0.4 0.7-0.4s0.5 0.3 0.8 0.8 0.5 1.3 0.7 2.2 0.4 1.9 0.6 2.8c0.2 1 0.4 2 0.6 3.1 0 0.2 0 0.3 0.1 0.4 0.7 3.8 1.4 7.4 2.1 10.7 0.8 3.3 1.3 5.4 1.7 6.4 0.1 0.2 0.1 0.3 0.1 0.4s0.1 0.3 0.2 0.6 0.2 0.5 0.4 0.8 0.3 0.4 0.5 0.7c0.2 0.2 0.4 0.4 0.6 0.5s0.4 0.2 0.7 0.2c0.5 0 0.9-0.2 1.1-0.5 0.3-0.3 0.4-0.7 0.4-1.1 0-0.2-0.1-0.4-0.2-0.5s-0.2-0.2-0.3-0.3h-0.3c-0.2 0-0.4 0.1-0.5 0.2s-0.2 0.3-0.2 0.6c0 0.4 0.2 0.7 0.7 0.8v0.1l-0.2 0.2c-0.1 0.1-0.3 0.1-0.4 0.1s-0.2-0.1-0.4-0.2c-0.1-0.1-0.3-0.4-0.4-0.8-0.2-0.4-0.4-0.9-0.5-1.6-0.2-0.7-0.4-1.6-0.6-2.8s-0.5-2.6-0.8-4.2c-0.5-3-1.1-5.9-1.7-8.6s-1-4.7-1.4-5.9c-0.3-1.2-0.6-2.1-0.7-2.6-0.7-2.1-1.6-3.2-2.6-3.2-0.4 0-0.7 0.1-1 0.4s-0.5 0.7-0.5 1.2c0 0.3 0.1 0.5 0.3 0.7s0.3 0.2 0.5 0.2 0.4-0.1 0.5-0.2c0.2-0.1 0.2-0.3 0.2-0.6-0.1-0.3-0.3-0.5-0.8-0.6z" />
            </g>
            <g transform="translate(1046.4 1088.1) scale(.707)">
                <path d="m-5822.4-1539.9c0 0.1 0 0.2 0.1 0.3 0 0.1 0.1 0.2 0.2 0.2 0 0 0.3 0 1 0.1 0.6 0 1 0.1 1 0.1 0.1 0 0.2 0 0.2-0.1s-0.2-0.7-0.5-1.9c-0.1-0.3-0.1-0.6-0.2-1-0.1-0.3-0.1-0.6-0.2-0.7l-0.1-0.3h0.1c0.4 0.4 0.9 0.5 1.4 0.5 0.6 0 1-0.2 1.4-0.6 0.3-0.4 0.5-0.9 0.5-1.6 0-1-0.4-1.9-1.1-2.7s-1.5-1.2-2.3-1.2c-0.5 0-0.9 0.2-1.2 0.5s-0.6 0.9-0.6 1.7v0.1c0 0.2 0 0.5 0.1 0.8s0.3 1.2 0.7 2.7c0.5 1.8 0.7 2.7 0.7 2.8s-0.2 0.2-0.5 0.2h-0.1-0.1-0.2c-0.2 0-0.2 0-0.3 0.1v0zm3.6-4.4c0 0.8-0.3 1.1-0.8 1.1-0.2 0-0.3 0-0.5-0.1s-0.3-0.2-0.4-0.3-0.3-0.2-0.4-0.3-0.2-0.2-0.2-0.3l-0.1-0.1-0.3-1.2c-0.2-0.8-0.3-1.3-0.3-1.7s0.1-0.8 0.3-1c0.1-0.1 0.3-0.2 0.5-0.2 0.3 0 0.6 0.1 0.9 0.4 0.2 0.2 0.4 0.5 0.5 0.8s0.3 0.8 0.4 1.4 0.4 1.2 0.4 1.5z" />
            </g>
            <g transform="translate(589 -896.4) scale(.707)">
                <path d="m-5184.8 1222.3c0 0.9 0.3 1.8 1 2.6s1.5 1.2 2.3 1.2c0.5 0 0.9-0.2 1.2-0.7 0.1 0.3 0.4 0.4 0.6 0.4 0.1 0 0.2 0 0.3-0.1s0.1-0.2 0.1-0.3-0.2-0.8-0.5-2.2c-0.3-1.3-0.5-2.1-0.5-2.3s0-0.4 0.1-0.4c0.1-0.1 0.2-0.1 0.3-0.1s0.2 0 0.3 0.1c0.2 0.2 0.4 0.6 0.6 1.3 0.1 0.2 0.1 0.3 0.1 0.3h0.1 0.1c0.2 0 0.3 0 0.3-0.1s0-0.2-0.1-0.4c0-0.2-0.1-0.4-0.3-0.7-0.1-0.3-0.3-0.5-0.4-0.7-0.1-0.1-0.3-0.2-0.4-0.3h-0.3c-0.3 0-0.6 0.1-0.8 0.2s-0.3 0.3-0.4 0.4l-0.1 0.2h-0.1l-0.1-0.1c-0.5-0.5-1.1-0.8-1.6-0.8s-0.9 0.2-1.3 0.5c-0.3 0.6-0.5 1.2-0.5 2zm4.4 2.3c0 0.1 0 0.2-0.1 0.3 0 0.1-0.1 0.3-0.3 0.5s-0.4 0.3-0.6 0.3c-0.3 0-0.6-0.1-0.9-0.4s-0.5-0.6-0.7-1.1c-0.3-0.7-0.4-1.5-0.6-2.2v-0.1s0-0.1 0-0.2c0-0.4 0.1-0.7 0.2-0.8 0.2-0.2 0.4-0.2 0.6-0.2 0.3 0 0.7 0.1 1 0.4s0.5 0.5 0.6 0.7c0 0 0.1 0.5 0.4 1.5 0.2 0.7 0.3 1.2 0.4 1.3z" />
            </g>
        </g>
        <g transform="translate(4697)">
            <path d="m-4626.2-13.1c0 0.1-0.3 0.1-0.8 0.1h-0.4s-0.1 0-0.1 0.1v0.2c0.1 0.2 0.1 0.3 0.1 0.3h0.1 0.1 1.8 0.9 0.6 0.3c0.2 0 0.2 0 0.2-0.1v-0.2-0.1s0-0.1 0-0.1v-0.1h-0.1s0 0-0.1 0-0.1 0-0.1 0h-0.2-0.7s-0.2-0.1-0.2-0.1l-1.1-4.3s0.8 0.7 2.5 2 2.5 2 2.6 2c0.1 0.1 0.2 0.2 0.2 0.3s-0.1 0.2-0.3 0.2c-0.1 0-0.2 0-0.2 0.1v0.2c0 0.1 0 0.2 0.1 0.2 0 0 0.1 0.1 0.2 0.1h0.5s0.6 0 1.1 0h0.7 0.4c0.2 0 0.3 0 0.3-0.1 0-0.2 0-0.3-0.1-0.4 0 0-0.1-0.1-0.3-0.1-0.7 0-1.3-0.3-1.8-0.7-0.1-0.1-0.5-0.3-1-0.7s-0.9-0.7-1.4-1.1l-0.6-0.5 0.1-0.3c0.1-0.2 0.2-0.5 0.4-0.9s0.3-0.8 0.5-1.2c0.7-1.6 1-2.4 1.1-2.5l0.1-0.1c0.1-0.1 0.4-0.1 0.7-0.1h0.3l0.1-0.1s0-0.1 0-0.2-0.1-0.2-0.1-0.3h-0.1-1.3-1.9-0.1l-0.1 0.1v0.2c0 0.1 0.1 0.2 0.1 0.2s0.1 0 0.1 0c0.5 0 0.7 0.1 0.7 0.3 0 0-0.1 0.4-0.4 1-0.2 0.6-0.4 0.9-0.4 1l-0.8 1.9-1.8-1.4-0.3-1.3c-0.2-0.8-0.3-1.3-0.3-1.3 0-0.1 0-0.1 0.1-0.1h0.7 0.4l0.1-0.1c0-0.1 0-0.3-0.1-0.4 0 0-0.1-0.1-0.2-0.1h-0.5-1.4-1.3-0.5c-0.2 0-0.2 0-0.2 0.1v0.2c0 0.1 0.1 0.2 0.1 0.2h0.3 0.8c0.1 0 0.2 0.1 0.3 0.2 0 0 0.4 1.3 1 3.8 0.3 2.6 0.6 3.9 0.6 4z" />
        </g>
        <g transform="translate(5586)">
            <path d="m-5505.7-18.2c0 0.6 0 1.2 0.1 1.8s0.2 1 0.3 1.5 0.3 0.8 0.5 1.2 0.4 0.7 0.5 0.9 0.3 0.5 0.6 0.7c0.3 0.3 0.4 0.4 0.4 0.5s0.2 0.1 0.3 0.3h0.3c0.1 0 0.2 0 0.2-0.1 0 0-0.1-0.1-0.2-0.3-0.2-0.2-0.3-0.4-0.6-0.7s-0.4-0.7-0.7-1.2c-0.2-0.5-0.4-1.1-0.6-1.9s-0.2-1.7-0.2-2.6c0-1 0.1-1.8 0.2-2.6s0.3-1.4 0.6-1.9 0.4-0.9 0.7-1.2 0.4-0.5 0.6-0.7 0.2-0.3 0.2-0.3c0-0.1-0.1-0.1-0.2-0.1h-0.2l-0.4 0.3c-0.9 0.8-1.5 1.7-1.9 2.9-0.3 1.1-0.5 2.3-0.5 3.5z" />
        </g>
        <g transform="translate(5975)">
            <path d="m-5888.9-17.7c0 0.3 0.1 0.6 0.2 0.9s0.4 0.6 0.8 0.8c0.4 0.3 0.8 0.4 1.3 0.4 0.6 0 1-0.1 1.2-0.4s0.4-0.5 0.4-0.8-0.1-0.5-0.2-0.6-0.3-0.2-0.5-0.2c-0.1 0-0.2 0-0.3 0.1s-0.2 0.2-0.2 0.4c0 0.1 0 0.3 0.1 0.4l0.2 0.2s0.1 0.1 0.2 0.1c0 0 0 0.1-0.1 0.1-0.1 0.1-0.2 0.1-0.3 0.1-0.2 0-0.3 0.1-0.5 0.1-0.4 0-0.8-0.1-1-0.4s-0.3-0.5-0.3-0.7 0.1-0.4 0.3-0.5 0.4-0.2 0.7-0.2 0.6-0.1 0.7-0.2c0.6-0.3 0.9-0.7 0.9-1.3 0-0.3 0-0.5-0.1-0.8s-0.2-0.5-0.4-0.8-0.5-0.5-0.9-0.6-0.8-0.2-1.3-0.2c-0.7 0-1.2 0.1-1.5 0.4s-0.4 0.6-0.4 0.9c0 0.4 0.1 0.6 0.3 0.8s0.4 0.2 0.6 0.2c0.1 0 0.3 0 0.4-0.1s0.2-0.2 0.2-0.4-0.1-0.4-0.2-0.6-0.3-0.2-0.4-0.2c0 0 0-0.1 0.1-0.1s0.2-0.1 0.4-0.2 0.5-0.1 0.7-0.1c0.3 0 0.6 0 0.8 0.1s0.4 0.2 0.5 0.4 0.2 0.3 0.2 0.4 0.1 0.2 0.1 0.3c0 0.3-0.1 0.4-0.3 0.6s-0.4 0.2-0.7 0.2c-0.2 0-0.5 0.1-0.8 0.2s-0.5 0.3-0.6 0.5c-0.3 0.3-0.3 0.5-0.3 0.8z" />
        </g>
        <g transform="translate(6444)">
            <path d="m-6352.3-21.1v0.3c0 0.2 0.1 0.4 0.2 0.6s0.3 0.2 0.6 0.2 0.5-0.1 0.7-0.3 0.3-0.6 0.3-1.2c0-0.3 0-0.6-0.1-0.9s-0.2-0.6-0.3-0.8-0.2-0.4-0.4-0.6c-0.1-0.2-0.2-0.3-0.3-0.4s-0.1-0.1-0.2-0.1c0 0-0.1 0-0.2 0.1s-0.1 0.1-0.1 0.2 0 0.1 0.1 0.2 0.2 0.2 0.3 0.4 0.2 0.4 0.4 0.7c0.1 0.3 0.2 0.6 0.2 1v0.2h-0.1-0.1-0.1s-0.1 0-0.2 0c-0.2 0-0.4 0.1-0.6 0.2l-0.1 0.2z" />
        </g>
        <g transform="translate(6888.6)">
            <path d="m-6791.6-17.7c0 0.1 0.1 0.3 0.2 0.7 0.1 0.3 0.4 0.6 0.7 1 0.3 0.3 0.6 0.5 1 0.5s0.7-0.1 0.9-0.3 0.3-0.5 0.4-0.9v-0.3s-0.1-0.2-0.2-0.6-0.3-0.8-0.4-1.3c-0.2-0.5-0.2-0.9-0.2-1.2 0-0.4 0.1-0.7 0.2-0.8 0.1-0.2 0.3-0.2 0.6-0.2 0.2 0 0.4 0 0.6 0.1s0.3 0.2 0.4 0.3 0.2 0.3 0.4 0.4c0 0 0 0.1 0.1 0.3 0 0.2 0.1 0.4 0.2 0.8s0.2 0.7 0.3 1c0.3 1.4 0.5 2.1 0.6 2.1 0.1 0.2 0.3 0.4 0.6 0.4 0.1 0 0.2 0 0.3-0.1s0.1-0.1 0.1-0.2v-0.1c0-0.1-0.2-1.1-0.7-2.9-0.4-1.8-0.7-2.8-0.8-2.9-0.3-0.8-0.7-1.3-1.3-1.8s-1.2-0.7-1.9-0.7c-0.4 0-0.8 0.1-1.1 0.3s-0.5 0.5-0.5 0.9c0 0.2 0 0.4 0.1 0.5s0.1 0.2 0.3 0.3c0.1 0.1 0.2 0.1 0.3 0.1h0.2c0.4 0 0.6-0.2 0.6-0.6 0-0.2-0.1-0.3-0.2-0.5s-0.2-0.2-0.3-0.3c-0.1 0-0.2-0.1-0.2-0.1s0.1-0.1 0.3-0.2 0.3-0.1 0.5-0.1h0.1 0.4c0.3 0.1 0.6 0.3 0.8 0.5 0.3 0.3 0.4 0.5 0.6 0.8 0.1 0.3 0.2 0.6 0.3 0.8s0.1 0.3 0.1 0.4l-0.1-0.1c-0.1 0-0.1-0.1-0.3-0.1-0.1-0.1-0.2-0.1-0.4-0.2-0.2 0-0.4-0.1-0.5-0.1-0.4 0-0.8 0.1-1.1 0.3s-0.5 0.5-0.6 1v0.4c0 0.5 0.2 1.2 0.5 2s0.5 1.4 0.5 1.6v0.2s0 0.1-0.1 0.1-0.1 0.1-0.1 0.1h-0.1c-0.2 0-0.4-0.1-0.6-0.3s-0.3-0.4-0.4-0.6-0.2-0.4-0.2-0.6c-0.1-0.2-0.1-0.3-0.1-0.3h-0.2-0.2c-0.4 0.4-0.4 0.5-0.4 0.5z" />
        </g>
        <g transform="translate(7378.6)">
            <path d="m-7274.5-11.4h0.2 0.2l0.4-0.3c0.9-0.8 1.5-1.7 1.9-2.9s0.6-2.3 0.6-3.6c0-0.6 0-1.2-0.1-1.8s-0.2-1.1-0.3-1.5-0.3-0.8-0.5-1.2-0.4-0.7-0.5-0.9-0.3-0.4-0.6-0.7c-0.2-0.3-0.4-0.4-0.4-0.4l-0.4-0.4h-0.2-0.1-0.1v0.1s0.1 0.1 0.1 0.2c1.4 1.5 2.1 3.6 2.1 6.4s-0.7 5-2.1 6.4c-0.1 0.1-0.1 0.2-0.1 0.2-0.1 0.3-0.1 0.4-0.1 0.4z" />
        </g>
        <g transform="translate(7767.6)">
            <path d="m-7654.8-21c-0.1-0.1-0.3-0.2-0.6-0.4-0.3-0.1-0.5-0.2-0.8-0.2-0.6 0-1 0.2-1.4 0.6-0.3 0.4-0.5 0.9-0.5 1.6 0 1 0.3 1.8 1 2.6s1.5 1.2 2.3 1.2c0.4 0 0.8-0.2 1.2-0.7v0.1s0 0.1 0.1 0.1l0.1 0.1c0.1 0 0.1 0.1 0.2 0.1s0.1 0 0.2 0 0.2 0 0.3-0.1 0.1-0.2 0.1-0.3-0.3-1.2-0.8-3.3-0.8-3.1-0.8-3.1c-0.2-0.5-0.5-0.9-1-1.2s-1.1-0.5-1.8-0.5c-1.3 0-1.9 0.3-1.9 0.9 0 0.2 0.1 0.4 0.2 0.6s0.4 0.3 0.6 0.3c0.1 0 0.3 0 0.4-0.1s0.2-0.2 0.2-0.4v-0.3c0-0.1 0-0.1-0.1-0.2l-0.1-0.1s-0.1-0.1-0.1-0.1h0.8c0.3 0 0.6 0.1 0.8 0.2s0.4 0.2 0.6 0.4 0.3 0.4 0.4 0.6 0.1 0.5 0.2 0.8c0.2 0.5 0.2 0.7 0.2 0.8zm1 3.9-0.1 0.1c0 0.1 0 0.2-0.1 0.2s0 0.1-0.1 0.2c0 0.1-0.1 0.2-0.1 0.2s-0.1 0.1-0.2 0.1-0.1 0.1-0.2 0.1h-0.3c-0.4 0-0.8-0.2-1.2-0.7-0.3-0.4-0.5-0.9-0.7-1.6s-0.3-1.2-0.3-1.6c0-0.7 0.3-1.1 0.8-1.1s1 0.3 1.5 1l0.1 0.1 0.9 3z" />
        </g>
        <g transform="translate(8244.6)">
            <path d="m-8128.2-18.2c0 0.6 0 1.2 0.1 1.8s0.2 1 0.3 1.5c0.1 0.4 0.3 0.8 0.5 1.2s0.4 0.7 0.5 0.9 0.3 0.5 0.6 0.7c0.3 0.3 0.4 0.4 0.4 0.5s0.2 0.1 0.3 0.3h0.3c0.1 0 0.2 0 0.2-0.1 0 0-0.1-0.1-0.2-0.3-0.2-0.2-0.3-0.4-0.6-0.7s-0.4-0.7-0.7-1.2c-0.2-0.5-0.4-1.1-0.6-1.9s-0.2-1.7-0.2-2.6c0-1 0.1-1.8 0.2-2.6s0.3-1.4 0.6-1.9 0.4-0.9 0.7-1.2c0.2-0.3 0.4-0.5 0.6-0.7s0.2-0.3 0.2-0.3c0-0.1-0.1-0.1-0.2-0.1h-0.2l-0.4 0.3c-0.9 0.8-1.5 1.7-1.9 2.9-0.3 1.1-0.5 2.3-0.5 3.5z" />
        </g>
        <g transform="translate(8633.6)">
            <path d="m-8513-17.7c0 0.1 0.1 0.3 0.2 0.7 0.1 0.3 0.4 0.6 0.7 1s0.6 0.5 1 0.5 0.7-0.1 0.9-0.3 0.3-0.5 0.4-0.9v-0.3s-0.1-0.2-0.2-0.6-0.3-0.8-0.4-1.3c-0.2-0.5-0.2-0.9-0.2-1.2 0-0.4 0.1-0.7 0.2-0.8 0.1-0.2 0.3-0.2 0.6-0.2 0.2 0 0.4 0 0.6 0.1s0.3 0.2 0.4 0.3 0.2 0.3 0.4 0.4c0 0 0 0.1 0.1 0.3 0 0.2 0.1 0.4 0.2 0.8s0.2 0.7 0.3 1c0.3 1.4 0.5 2.1 0.6 2.1 0.1 0.2 0.3 0.4 0.6 0.4 0.1 0 0.2 0 0.3-0.1s0.1-0.1 0.1-0.2v-0.1c0-0.1-0.2-1.1-0.7-2.9s-0.7-2.8-0.8-2.9c-0.3-0.8-0.7-1.3-1.3-1.8s-1.2-0.7-1.9-0.7c-0.4 0-0.8 0.1-1.1 0.3s-0.5 0.5-0.5 0.9c0 0.2 0 0.4 0.1 0.5s0.1 0.2 0.3 0.3c0.1 0.1 0.2 0.1 0.3 0.1s0.1 0 0.2 0c0.4 0 0.6-0.2 0.6-0.6 0-0.2-0.1-0.3-0.2-0.5l-0.3-0.3c-0.1 0-0.2-0.1-0.2-0.1s0.1-0.1 0.3-0.2 0.3-0.1 0.5-0.1h0.1 0.4c0.3 0.1 0.6 0.3 0.8 0.5 0.3 0.3 0.4 0.5 0.6 0.8 0.1 0.3 0.2 0.6 0.3 0.8s0.1 0.3 0.1 0.4l-0.1-0.1c-0.1 0-0.1-0.1-0.3-0.1-0.1-0.1-0.2-0.1-0.4-0.2-0.2 0-0.4-0.1-0.5-0.1-0.4 0-0.8 0.1-1.1 0.3s-0.5 0.5-0.6 1v0.4c0 0.5 0.2 1.2 0.5 2s0.5 1.4 0.5 1.6v0.2s0 0.1-0.1 0.1-0.1 0.1-0.1 0.1h-0.1c-0.2 0-0.4-0.1-0.6-0.3s-0.3-0.4-0.4-0.6-0.2-0.4-0.2-0.6c-0.1-0.2-0.1-0.3-0.1-0.3h-0.2-0.2c-0.3 0.4-0.4 0.5-0.4 0.5z" />
        </g>
        <g transform="translate(9123.6)">
            <path d="m-8995.8-11.4h0.2 0.2l0.4-0.3c0.9-0.8 1.5-1.7 1.9-2.9 0.4-1.1 0.6-2.3 0.6-3.6 0-0.6 0-1.2-0.1-1.8s-0.2-1.1-0.3-1.5-0.3-0.8-0.5-1.2-0.4-0.7-0.5-0.9-0.3-0.4-0.6-0.7c-0.2-0.3-0.4-0.4-0.4-0.4l-0.4-0.4h-0.2-0.1s0 0-0.1 0v0.1s0.1 0.1 0.1 0.2c1.4 1.5 2.1 3.6 2.1 6.4s-0.7 5-2.1 6.4c-0.1 0.1-0.1 0.2-0.1 0.2-0.1 0.3-0.1 0.4-0.1 0.4z" />
        </g>
        <g transform="translate(9512.6)">
            <path d="m-9375.3-12.3s0.3 0 1 0.1 1 0.1 1 0.1c0.1 0 0.2 0 0.2-0.1s-0.3-1.4-1-4.1-1-4-1-4.1v-0.2c0-0.4 0.1-0.6 0.4-0.6 0.1 0 0.2 0 0.3 0.1 0.2 0.2 0.4 0.6 0.6 1.3 0.1 0.2 0.1 0.3 0.1 0.3h0.1 0.2c0.1 0 0.2 0 0.2-0.1v-0.2c-0.1-0.5-0.3-0.8-0.4-1.1-0.2-0.3-0.3-0.5-0.4-0.5-0.1-0.1-0.2-0.2-0.4-0.2h-0.3c-0.3 0-0.6 0.1-0.8 0.2s-0.3 0.3-0.4 0.4l-0.1 0.2h-0.1l-0.1-0.1c-0.5-0.5-1.1-0.8-1.6-0.8s-0.9 0.2-1.3 0.5c-0.4 0.4-0.6 0.9-0.6 1.7 0 0.4 0.1 0.9 0.3 1.3 0.2 0.5 0.4 0.8 0.7 1.2 0.4 0.5 0.9 0.9 1.3 1.1s0.8 0.3 1.2 0.3c0.5 0 0.9-0.2 1.1-0.6 0-0.1 0.1-0.1 0.1-0.1s0.1 0.5 0.4 1.5c0.2 1 0.4 1.5 0.4 1.5 0 0.1 0 0.2-0.1 0.2s-0.2 0-0.5 0.1h-0.3l-0.1 0.1s0 0.1 0 0.3c-0.3 0.2-0.2 0.3-0.1 0.3zm-0.2-4.9c-0.2 0.7-0.5 1.1-1 1.1-0.3 0-0.6-0.1-0.9-0.4s-0.5-0.6-0.7-1.1c-0.3-0.7-0.4-1.5-0.6-2.2v-0.1s0-0.1 0-0.2c0-0.4 0.1-0.7 0.2-0.8 0.2-0.2 0.4-0.2 0.6-0.2 0.5 0 1 0.3 1.5 1l0.1 0.1 0.8 2.8z" />
        </g>
        <g transform="translate(10033)">
            <path d="m-9893-17.7c0 0.1 0.1 0.3 0.2 0.7 0.1 0.3 0.4 0.6 0.7 1s0.6 0.5 1 0.5 0.7-0.1 0.9-0.3 0.3-0.5 0.4-0.9v-0.3s-0.1-0.2-0.2-0.6-0.3-0.8-0.4-1.3c-0.2-0.5-0.2-0.9-0.2-1.2 0-0.4 0.1-0.7 0.2-0.8 0.1-0.2 0.3-0.2 0.6-0.2 0.2 0 0.4 0 0.6 0.1s0.3 0.2 0.4 0.3 0.2 0.3 0.4 0.4c0 0 0 0.1 0.1 0.3 0 0.2 0.1 0.4 0.2 0.8s0.2 0.7 0.3 1c0.3 1.4 0.5 2.1 0.6 2.1 0.1 0.2 0.3 0.4 0.6 0.4 0.1 0 0.2 0 0.3-0.1s0.1-0.1 0.1-0.2v-0.1c0-0.1-0.2-1.1-0.7-2.9s-0.7-2.8-0.8-2.9c-0.3-0.8-0.7-1.3-1.3-1.8-0.6-0.4-1.2-0.7-1.9-0.7-0.4 0-0.8 0.1-1.1 0.3s-0.5 0.5-0.5 0.9c0 0.2 0 0.4 0.1 0.5s0.1 0.2 0.3 0.3 0.2 0.1 0.3 0.1 0.1 0 0.2 0c0.4 0 0.6-0.2 0.6-0.6 0-0.2-0.1-0.3-0.2-0.5l-0.3-0.3c-0.1 0-0.2-0.1-0.2-0.1s0.1-0.1 0.3-0.2 0.3-0.1 0.5-0.1h0.1 0.4c0.3 0.1 0.6 0.3 0.8 0.5 0.3 0.3 0.4 0.5 0.6 0.8 0.1 0.3 0.2 0.6 0.3 0.8s0.1 0.3 0.1 0.4l-0.1-0.1c-0.1 0-0.1-0.1-0.3-0.1-0.1-0.1-0.2-0.1-0.4-0.2-0.2 0-0.4-0.1-0.5-0.1-0.4 0-0.8 0.1-1.1 0.3s-0.5 0.5-0.6 1v0.4c0 0.5 0.2 1.2 0.5 2s0.5 1.4 0.5 1.6v0.2s0 0.1-0.1 0.1-0.1 0.1-0.1 0.1h-0.1c-0.2 0-0.4-0.1-0.6-0.3s-0.3-0.4-0.4-0.6-0.2-0.4-0.2-0.6c-0.1-0.2-0.1-0.3-0.1-0.3h-0.2-0.2c-0.3 0.4-0.4 0.5-0.4 0.5z" />
        </g>
    </g>
</svg>
