<svg xmlns="http://www.w3.org/2000/svg" xmlns:xlink="http://www.w3.org/1999/xlink" width="663.175" height="422.075" version="1.1" viewBox="0 0 497.381 316.556"><metadata><rdf:RDF xmlns:cc="http://creativecommons.org/ns#" xmlns:dc="http://purl.org/dc/elements/1.1/" xmlns:rdf="http://www.w3.org/1999/02/22-rdf-syntax-ns#"><cc:Work><dc:type rdf:resource="http://purl.org/dc/dcmitype/StillImage"/><dc:date>2021-05-08T18:47:23.680182</dc:date><dc:format>image/svg+xml</dc:format><dc:creator><cc:Agent><dc:title>Matplotlib v3.3.4, https://matplotlib.org/</dc:title></cc:Agent></dc:creator></cc:Work></rdf:RDF></metadata><defs><style type="text/css">*{stroke-linecap:butt;stroke-linejoin:round}</style></defs><g id="figure_1"><g id="patch_1"><path d="M 0 316.55625 L 497.38125 316.55625 L 497.38125 0 L 0 0 z" style="fill:none"/></g><g id="axes_1"><g id="patch_2"><path d="M 43.78125 279 L 490.18125 279 L 490.18125 7.2 L 43.78125 7.2 z" style="fill:#fff"/></g><g id="matplotlib.axis_1"><g id="xtick_1"><g id="line2d_1"><defs><path id="mfeff27d9b5" d="M 0 0 L 0 3.5" style="stroke:#000;stroke-width:.8"/></defs><g><use style="stroke:#000;stroke-width:.8" x="64.072" y="279" xlink:href="#mfeff27d9b5"/></g></g><g id="text_1"><g transform="translate(56.701065 293.598437)scale(0.1 -0.1)"><defs><path id="DejaVuSans-8722" d="M 10.59375 35.5 L 73.1875 35.5 L 73.1875 27.203125 L 10.59375 27.203125 z"/><path id="DejaVuSans-51" d="M 40.578125 39.3125 Q 47.65625 37.796875 51.625 33 Q 55.609375 28.21875 55.609375 21.1875 Q 55.609375 10.40625 48.1875 4.484375 Q 40.765625 -1.421875 27.09375 -1.421875 Q 22.515625 -1.421875 17.65625 -0.515625 Q 12.796875 0.390625 7.625 2.203125 L 7.625 11.71875 Q 11.71875 9.328125 16.59375 8.109375 Q 21.484375 6.890625 26.8125 6.890625 Q 36.078125 6.890625 40.9375 10.546875 Q 45.796875 14.203125 45.796875 21.1875 Q 45.796875 27.640625 41.28125 31.265625 Q 36.765625 34.90625 28.71875 34.90625 L 20.21875 34.90625 L 20.21875 43.015625 L 29.109375 43.015625 Q 36.375 43.015625 40.234375 45.921875 Q 44.09375 48.828125 44.09375 54.296875 Q 44.09375 59.90625 40.109375 62.90625 Q 36.140625 65.921875 28.71875 65.921875 Q 24.65625 65.921875 20.015625 65.03125 Q 15.375 64.15625 9.8125 62.3125 L 9.8125 71.09375 Q 15.4375 72.65625 20.34375 73.4375 Q 25.25 74.21875 29.59375 74.21875 Q 40.828125 74.21875 47.359375 69.109375 Q 53.90625 64.015625 53.90625 55.328125 Q 53.90625 49.265625 50.4375 45.09375 Q 46.96875 40.921875 40.578125 39.3125 z"/></defs><use xlink:href="#DejaVuSans-8722"/><use x="83.789" xlink:href="#DejaVuSans-51"/></g></g></g><g id="xtick_2"><g id="line2d_2"><g><use style="stroke:#000;stroke-width:.8" x="131.709" y="279" xlink:href="#mfeff27d9b5"/></g></g><g id="text_2"><g transform="translate(124.337429 293.598437)scale(0.1 -0.1)"><defs><path id="DejaVuSans-50" d="M 19.1875 8.296875 L 53.609375 8.296875 L 53.609375 0 L 7.328125 0 L 7.328125 8.296875 Q 12.9375 14.109375 22.625 23.890625 Q 32.328125 33.6875 34.8125 36.53125 Q 39.546875 41.84375 41.421875 45.53125 Q 43.3125 49.21875 43.3125 52.78125 Q 43.3125 58.59375 39.234375 62.25 Q 35.15625 65.921875 28.609375 65.921875 Q 23.96875 65.921875 18.8125 64.3125 Q 13.671875 62.703125 7.8125 59.421875 L 7.8125 69.390625 Q 13.765625 71.78125 18.9375 73 Q 24.125 74.21875 28.421875 74.21875 Q 39.75 74.21875 46.484375 68.546875 Q 53.21875 62.890625 53.21875 53.421875 Q 53.21875 48.921875 51.53125 44.890625 Q 49.859375 40.875 45.40625 35.40625 Q 44.1875 33.984375 37.640625 27.21875 Q 31.109375 20.453125 19.1875 8.296875 z"/></defs><use xlink:href="#DejaVuSans-8722"/><use x="83.789" xlink:href="#DejaVuSans-50"/></g></g></g><g id="xtick_3"><g id="line2d_3"><g><use style="stroke:#000;stroke-width:.8" x="199.345" y="279" xlink:href="#mfeff27d9b5"/></g></g><g id="text_3"><g transform="translate(191.973793 293.598437)scale(0.1 -0.1)"><defs><path id="DejaVuSans-49" d="M 12.40625 8.296875 L 28.515625 8.296875 L 28.515625 63.921875 L 10.984375 60.40625 L 10.984375 69.390625 L 28.421875 72.90625 L 38.28125 72.90625 L 38.28125 8.296875 L 54.390625 8.296875 L 54.390625 0 L 12.40625 0 z"/></defs><use xlink:href="#DejaVuSans-8722"/><use x="83.789" xlink:href="#DejaVuSans-49"/></g></g></g><g id="xtick_4"><g id="line2d_4"><g><use style="stroke:#000;stroke-width:.8" x="266.981" y="279" xlink:href="#mfeff27d9b5"/></g></g><g id="text_4"><g transform="translate(263.8 293.598437)scale(0.1 -0.1)"><defs><path id="DejaVuSans-48" d="M 31.78125 66.40625 Q 24.171875 66.40625 20.328125 58.90625 Q 16.5 51.421875 16.5 36.375 Q 16.5 21.390625 20.328125 13.890625 Q 24.171875 6.390625 31.78125 6.390625 Q 39.453125 6.390625 43.28125 13.890625 Q 47.125 21.390625 47.125 36.375 Q 47.125 51.421875 43.28125 58.90625 Q 39.453125 66.40625 31.78125 66.40625 z M 31.78125 74.21875 Q 44.046875 74.21875 50.515625 64.515625 Q 56.984375 54.828125 56.984375 36.375 Q 56.984375 17.96875 50.515625 8.265625 Q 44.046875 -1.421875 31.78125 -1.421875 Q 19.53125 -1.421875 13.0625 8.265625 Q 6.59375 17.96875 6.59375 36.375 Q 6.59375 54.828125 13.0625 64.515625 Q 19.53125 74.21875 31.78125 74.21875 z"/></defs><use xlink:href="#DejaVuSans-48"/></g></g></g><g id="xtick_5"><g id="line2d_5"><g><use style="stroke:#000;stroke-width:.8" x="334.618" y="279" xlink:href="#mfeff27d9b5"/></g></g><g id="text_5"><g transform="translate(331.436364 293.598437)scale(0.1 -0.1)"><use xlink:href="#DejaVuSans-49"/></g></g></g><g id="xtick_6"><g id="line2d_6"><g><use style="stroke:#000;stroke-width:.8" x="402.254" y="279" xlink:href="#mfeff27d9b5"/></g></g><g id="text_6"><g transform="translate(399.072727 293.598437)scale(0.1 -0.1)"><use xlink:href="#DejaVuSans-50"/></g></g></g><g id="xtick_7"><g id="line2d_7"><g><use style="stroke:#000;stroke-width:.8" x="469.89" y="279" xlink:href="#mfeff27d9b5"/></g></g><g id="text_7"><g transform="translate(466.709091 293.598437)scale(0.1 -0.1)"><use xlink:href="#DejaVuSans-51"/></g></g></g><g id="text_8"><g transform="translate(264.376562 307.276562)scale(0.1 -0.1)"><defs><path id="DejaVuSans-115" d="M 44.28125 53.078125 L 44.28125 44.578125 Q 40.484375 46.53125 36.375 47.5 Q 32.28125 48.484375 27.875 48.484375 Q 21.1875 48.484375 17.84375 46.4375 Q 14.5 44.390625 14.5 40.28125 Q 14.5 37.15625 16.890625 35.375 Q 19.28125 33.59375 26.515625 31.984375 L 29.59375 31.296875 Q 39.15625 29.25 43.1875 25.515625 Q 47.21875 21.78125 47.21875 15.09375 Q 47.21875 7.46875 41.1875 3.015625 Q 35.15625 -1.421875 24.609375 -1.421875 Q 20.21875 -1.421875 15.453125 -0.5625 Q 10.6875 0.296875 5.421875 2 L 5.421875 11.28125 Q 10.40625 8.6875 15.234375 7.390625 Q 20.0625 6.109375 24.8125 6.109375 Q 31.15625 6.109375 34.5625 8.28125 Q 37.984375 10.453125 37.984375 14.40625 Q 37.984375 18.0625 35.515625 20.015625 Q 33.0625 21.96875 24.703125 23.78125 L 21.578125 24.515625 Q 13.234375 26.265625 9.515625 29.90625 Q 5.8125 33.546875 5.8125 39.890625 Q 5.8125 47.609375 11.28125 51.796875 Q 16.75 56 26.8125 56 Q 31.78125 56 36.171875 55.265625 Q 40.578125 54.546875 44.28125 53.078125 z"/></defs><use xlink:href="#DejaVuSans-115"/></g></g></g><g id="matplotlib.axis_2"><g id="ytick_1"><g id="line2d_8"><defs><path id="m3ffe8a4bac" d="M 0 0 L -3.5 0" style="stroke:#000;stroke-width:.8"/></defs><g><use style="stroke:#000;stroke-width:.8" x="43.781" y="266.645" xlink:href="#m3ffe8a4bac"/></g></g><g id="text_9"><g transform="translate(20.878125 270.444673)scale(0.1 -0.1)"><defs><path id="DejaVuSans-46" d="M 10.6875 12.40625 L 21 12.40625 L 21 0 L 10.6875 0 z"/></defs><use xlink:href="#DejaVuSans-48"/><use x="63.623" xlink:href="#DejaVuSans-46"/><use x="95.41" xlink:href="#DejaVuSans-48"/></g></g></g><g id="ytick_2"><g id="line2d_9"><g><use style="stroke:#000;stroke-width:.8" x="43.781" y="207.8" xlink:href="#m3ffe8a4bac"/></g></g><g id="text_10"><g transform="translate(20.878125 211.599414)scale(0.1 -0.1)"><defs><path id="DejaVuSans-53" d="M 10.796875 72.90625 L 49.515625 72.90625 L 49.515625 64.59375 L 19.828125 64.59375 L 19.828125 46.734375 Q 21.96875 47.46875 24.109375 47.828125 Q 26.265625 48.1875 28.421875 48.1875 Q 40.625 48.1875 47.75 41.5 Q 54.890625 34.8125 54.890625 23.390625 Q 54.890625 11.625 47.5625 5.09375 Q 40.234375 -1.421875 26.90625 -1.421875 Q 22.3125 -1.421875 17.546875 -0.640625 Q 12.796875 0.140625 7.71875 1.703125 L 7.71875 11.625 Q 12.109375 9.234375 16.796875 8.0625 Q 21.484375 6.890625 26.703125 6.890625 Q 35.15625 6.890625 40.078125 11.328125 Q 45.015625 15.765625 45.015625 23.390625 Q 45.015625 31 40.078125 35.4375 Q 35.15625 39.890625 26.703125 39.890625 Q 22.75 39.890625 18.8125 39.015625 Q 14.890625 38.140625 10.796875 36.28125 z"/></defs><use xlink:href="#DejaVuSans-48"/><use x="63.623" xlink:href="#DejaVuSans-46"/><use x="95.41" xlink:href="#DejaVuSans-53"/></g></g></g><g id="ytick_3"><g id="line2d_10"><g><use style="stroke:#000;stroke-width:.8" x="43.781" y="148.955" xlink:href="#m3ffe8a4bac"/></g></g><g id="text_11"><g transform="translate(20.878125 152.754154)scale(0.1 -0.1)"><use xlink:href="#DejaVuSans-49"/><use x="63.623" xlink:href="#DejaVuSans-46"/><use x="95.41" xlink:href="#DejaVuSans-48"/></g></g></g><g id="ytick_4"><g id="line2d_11"><g><use style="stroke:#000;stroke-width:.8" x="43.781" y="90.11" xlink:href="#m3ffe8a4bac"/></g></g><g id="text_12"><g transform="translate(20.878125 93.908895)scale(0.1 -0.1)"><use xlink:href="#DejaVuSans-49"/><use x="63.623" xlink:href="#DejaVuSans-46"/><use x="95.41" xlink:href="#DejaVuSans-53"/></g></g></g><g id="ytick_5"><g id="line2d_12"><g><use style="stroke:#000;stroke-width:.8" x="43.781" y="31.264" xlink:href="#m3ffe8a4bac"/></g></g><g id="text_13"><g transform="translate(20.878125 35.063635)scale(0.1 -0.1)"><use xlink:href="#DejaVuSans-50"/><use x="63.623" xlink:href="#DejaVuSans-46"/><use x="95.41" xlink:href="#DejaVuSans-48"/></g></g></g><g id="text_14"><g transform="translate(14.798438 152.780469)rotate(-90)scale(0.1 -0.1)"><defs><path id="DejaVuSans-103" d="M 45.40625 27.984375 Q 45.40625 37.75 41.375 43.109375 Q 37.359375 48.484375 30.078125 48.484375 Q 22.859375 48.484375 18.828125 43.109375 Q 14.796875 37.75 14.796875 27.984375 Q 14.796875 18.265625 18.828125 12.890625 Q 22.859375 7.515625 30.078125 7.515625 Q 37.359375 7.515625 41.375 12.890625 Q 45.40625 18.265625 45.40625 27.984375 z M 54.390625 6.78125 Q 54.390625 -7.171875 48.1875 -13.984375 Q 42 -20.796875 29.203125 -20.796875 Q 24.46875 -20.796875 20.265625 -20.09375 Q 16.0625 -19.390625 12.109375 -17.921875 L 12.109375 -9.1875 Q 16.0625 -11.328125 19.921875 -12.34375 Q 23.78125 -13.375 27.78125 -13.375 Q 36.625 -13.375 41.015625 -8.765625 Q 45.40625 -4.15625 45.40625 5.171875 L 45.40625 9.625 Q 42.625 4.78125 38.28125 2.390625 Q 33.9375 0 27.875 0 Q 17.828125 0 11.671875 7.65625 Q 5.515625 15.328125 5.515625 27.984375 Q 5.515625 40.671875 11.671875 48.328125 Q 17.828125 56 27.875 56 Q 33.9375 56 38.28125 53.609375 Q 42.625 51.21875 45.40625 46.390625 L 45.40625 54.6875 L 54.390625 54.6875 z"/><path id="DejaVuSans-40" d="M 31 75.875 Q 24.46875 64.65625 21.28125 53.65625 Q 18.109375 42.671875 18.109375 31.390625 Q 18.109375 20.125 21.3125 9.0625 Q 24.515625 -2 31 -13.1875 L 23.1875 -13.1875 Q 15.875 -1.703125 12.234375 9.375 Q 8.59375 20.453125 8.59375 31.390625 Q 8.59375 42.28125 12.203125 53.3125 Q 15.828125 64.359375 23.1875 75.875 z"/><path id="DejaVuSans-41" d="M 8.015625 75.875 L 15.828125 75.875 Q 23.140625 64.359375 26.78125 53.3125 Q 30.421875 42.28125 30.421875 31.390625 Q 30.421875 20.453125 26.78125 9.375 Q 23.140625 -1.703125 15.828125 -13.1875 L 8.015625 -13.1875 Q 14.5 -2 17.703125 9.0625 Q 20.90625 20.125 20.90625 31.390625 Q 20.90625 42.671875 17.703125 53.65625 Q 14.5 64.65625 8.015625 75.875 z"/></defs><use xlink:href="#DejaVuSans-103"/><use x="63.477" xlink:href="#DejaVuSans-40"/><use x="102.49" xlink:href="#DejaVuSans-115"/><use x="154.59" xlink:href="#DejaVuSans-41"/></g></g></g><g id="line2d_13"><path d="M 64.072159 251.202319 L 103.436523 187.16307 L 118.045977 163.830379 L 129.408886 146.076504 L 139.148523 131.251124 L 148.076523 118.067754 L 155.787068 107.059422 L 163.091795 97.005194 L 169.990705 87.887594 L 176.483795 79.678994 L 182.571068 72.342788 L 188.252523 65.834647 L 193.933977 59.676524 L 199.209614 54.290501 L 204.079432 49.617634 L 208.94925 45.244729 L 213.819068 41.183816 L 218.283068 37.744827 L 222.747068 34.585051 L 227.211068 31.71164 L 231.26925 29.353331 L 235.327432 27.241208 L 239.385614 25.379041 L 243.443795 23.770257 L 247.501977 22.41784 L 251.154341 21.421878 L 254.806705 20.636979 L 258.459068 20.064282 L 262.111432 19.704536 L 265.763795 19.558108 L 269.416159 19.625011 L 273.068523 19.90494 L 276.720886 20.397264 L 280.37325 21.100982 L 284.025614 22.014853 L 287.677977 23.137362 L 291.736159 24.626945 L 295.794341 26.368604 L 299.852523 28.358614 L 303.910705 30.592684 L 307.968886 33.066203 L 312.432886 36.057654 L 316.896886 39.325621 L 321.360886 42.862336 L 326.230705 47.017111 L 331.100523 51.469866 L 336.376159 56.615737 L 341.651795 62.08073 L 347.33325 68.303814 L 353.014705 74.856024 L 359.101977 82.216346 L 365.595068 90.425513 L 372.493977 99.517161 L 379.798705 109.515014 L 387.915068 121.01425 L 396.843068 134.064505 L 406.988523 149.306855 L 418.75725 167.402437 L 433.772523 190.919394 L 458.121614 229.52966 L 469.890341 248.248131 L 469.890341 248.248131" clip-path="url(#p4b474e8bf3)" style="fill:none;stroke:#1f77b4;stroke-linecap:square;stroke-width:1.5"/></g><g id="line2d_14"><path d="M 64.072159 266.645455 L 66.912886 266.53164 L 69.753614 266.190417 L 72.594341 265.622445 L 75.435068 264.828823 L 78.275795 263.811086 L 81.116523 262.571202 L 83.95725 261.111569 L 87.203795 259.177978 L 90.450341 256.965954 L 93.696886 254.481085 L 96.943432 251.729647 L 100.595795 248.324327 L 104.248159 244.601334 L 107.900523 240.572568 L 111.958705 235.753237 L 116.016886 230.591353 L 120.480886 224.541984 L 125.350705 217.532081 L 130.220523 210.132508 L 135.496159 201.725389 L 141.583432 191.591312 L 148.482341 179.653508 L 157.004523 164.438813 L 185.817614 112.586565 L 192.716523 100.860814 L 198.803795 90.965599 L 204.079432 82.803051 L 208.94925 75.658719 L 213.41325 69.474667 L 217.87725 63.670133 L 221.935432 58.745976 L 225.993614 54.177833 L 229.645977 50.385826 L 233.298341 46.908935 L 236.950705 43.758275 L 240.19725 41.239727 L 243.443795 38.993278 L 246.690341 37.024601 L 249.936886 35.33867 L 252.777614 34.098785 L 255.618341 33.081048 L 258.459068 32.287426 L 261.299795 31.719454 L 264.140523 31.378231 L 266.98125 31.264417 L 269.821977 31.378231 L 272.662705 31.719454 L 275.503432 32.287426 L 278.344159 33.081048 L 281.184886 34.098785 L 284.025614 35.33867 L 286.866341 36.798302 L 290.112886 38.731893 L 293.359432 40.943917 L 296.605977 43.428787 L 299.852523 46.180224 L 303.504886 49.585544 L 307.15725 53.308538 L 310.809614 57.337303 L 314.867795 62.156634 L 318.925977 67.318518 L 323.389977 73.367888 L 328.259795 80.377791 L 333.129614 87.777363 L 338.40525 96.184482 L 344.492523 106.31856 L 351.391432 118.256363 L 359.913614 133.471058 L 388.726705 185.323306 L 395.625614 197.049057 L 401.712886 206.944272 L 406.988523 215.10682 L 411.858341 222.251153 L 416.322341 228.435204 L 420.786341 234.239739 L 424.844523 239.163895 L 428.902705 243.732039 L 432.555068 247.524045 L 436.207432 251.000936 L 439.859795 254.151597 L 443.106341 256.670144 L 446.352886 258.916594 L 449.599432 260.885271 L 452.845977 262.571202 L 455.686705 263.811086 L 458.527432 264.828823 L 461.368159 265.622445 L 464.208886 266.190417 L 467.049614 266.53164 L 469.890341 266.645455 L 469.890341 266.645455" clip-path="url(#p4b474e8bf3)" style="fill:none;stroke:#ff7f0e;stroke-linecap:square;stroke-width:1.5"/></g><g id="patch_3"><path d="M 43.78125 279 L 43.78125 7.2" style="fill:none;stroke:#000;stroke-linecap:square;stroke-linejoin:miter;stroke-width:.8"/></g><g id="patch_4"><path d="M 490.18125 279 L 490.18125 7.2" style="fill:none;stroke:#000;stroke-linecap:square;stroke-linejoin:miter;stroke-width:.8"/></g><g id="patch_5"><path d="M 43.78125 279 L 490.18125 279" style="fill:none;stroke:#000;stroke-linecap:square;stroke-linejoin:miter;stroke-width:.8"/></g><g id="patch_6"><path d="M 43.78125 7.2 L 490.18125 7.2" style="fill:none;stroke:#000;stroke-linecap:square;stroke-linejoin:miter;stroke-width:.8"/></g><g id="legend_1"><g id="patch_7"><path d="M 399.30625 44.55625 L 483.18125 44.55625 Q 485.18125 44.55625 485.18125 42.55625 L 485.18125 14.2 Q 485.18125 12.2 483.18125 12.2 L 399.30625 12.2 Q 397.30625 12.2 397.30625 14.2 L 397.30625 42.55625 Q 397.30625 44.55625 399.30625 44.55625 z" style="fill:#fff;opacity:.8;stroke:#ccc;stroke-linejoin:miter"/></g><g id="line2d_15"><path d="M 401.30625 20.298437 L 421.30625 20.298437" style="fill:none;stroke:#1f77b4;stroke-linecap:square;stroke-width:1.5"/></g><g id="text_15"><g transform="translate(429.30625 23.798437)scale(0.1 -0.1)"><defs><path id="DejaVuSans-69" d="M 9.8125 72.90625 L 55.90625 72.90625 L 55.90625 64.59375 L 19.671875 64.59375 L 19.671875 43.015625 L 54.390625 43.015625 L 54.390625 34.71875 L 19.671875 34.71875 L 19.671875 8.296875 L 56.78125 8.296875 L 56.78125 0 L 9.8125 0 z"/><path id="DejaVuSans-116" d="M 18.3125 70.21875 L 18.3125 54.6875 L 36.8125 54.6875 L 36.8125 47.703125 L 18.3125 47.703125 L 18.3125 18.015625 Q 18.3125 11.328125 20.140625 9.421875 Q 21.96875 7.515625 27.59375 7.515625 L 36.8125 7.515625 L 36.8125 0 L 27.59375 0 Q 17.1875 0 13.234375 3.875 Q 9.28125 7.765625 9.28125 18.015625 L 9.28125 47.703125 L 2.6875 47.703125 L 2.6875 54.6875 L 9.28125 54.6875 L 9.28125 70.21875 z"/><path id="DejaVuSans-105" d="M 9.421875 54.6875 L 18.40625 54.6875 L 18.40625 0 L 9.421875 0 z M 9.421875 75.984375 L 18.40625 75.984375 L 18.40625 64.59375 L 9.421875 64.59375 z"/><path id="DejaVuSans-109" d="M 52 44.1875 Q 55.375 50.25 60.0625 53.125 Q 64.75 56 71.09375 56 Q 79.640625 56 84.28125 50.015625 Q 88.921875 44.046875 88.921875 33.015625 L 88.921875 0 L 79.890625 0 L 79.890625 32.71875 Q 79.890625 40.578125 77.09375 44.375 Q 74.3125 48.1875 68.609375 48.1875 Q 61.625 48.1875 57.5625 43.546875 Q 53.515625 38.921875 53.515625 30.90625 L 53.515625 0 L 44.484375 0 L 44.484375 32.71875 Q 44.484375 40.625 41.703125 44.40625 Q 38.921875 48.1875 33.109375 48.1875 Q 26.21875 48.1875 22.15625 43.53125 Q 18.109375 38.875 18.109375 30.90625 L 18.109375 0 L 9.078125 0 L 9.078125 54.6875 L 18.109375 54.6875 L 18.109375 46.1875 Q 21.1875 51.21875 25.484375 53.609375 Q 29.78125 56 35.6875 56 Q 41.65625 56 45.828125 52.96875 Q 50 49.953125 52 44.1875 z"/><path id="DejaVuSans-97" d="M 34.28125 27.484375 Q 23.390625 27.484375 19.1875 25 Q 14.984375 22.515625 14.984375 16.5 Q 14.984375 11.71875 18.140625 8.90625 Q 21.296875 6.109375 26.703125 6.109375 Q 34.1875 6.109375 38.703125 11.40625 Q 43.21875 16.703125 43.21875 25.484375 L 43.21875 27.484375 z M 52.203125 31.203125 L 52.203125 0 L 43.21875 0 L 43.21875 8.296875 Q 40.140625 3.328125 35.546875 0.953125 Q 30.953125 -1.421875 24.3125 -1.421875 Q 15.921875 -1.421875 10.953125 3.296875 Q 6 8.015625 6 15.921875 Q 6 25.140625 12.171875 29.828125 Q 18.359375 34.515625 30.609375 34.515625 L 43.21875 34.515625 L 43.21875 35.40625 Q 43.21875 41.609375 39.140625 45 Q 35.0625 48.390625 27.6875 48.390625 Q 23 48.390625 18.546875 47.265625 Q 14.109375 46.140625 10.015625 43.890625 L 10.015625 52.203125 Q 14.9375 54.109375 19.578125 55.046875 Q 24.21875 56 28.609375 56 Q 40.484375 56 46.34375 49.84375 Q 52.203125 43.703125 52.203125 31.203125 z"/><path id="DejaVuSans-101" d="M 56.203125 29.59375 L 56.203125 25.203125 L 14.890625 25.203125 Q 15.484375 15.921875 20.484375 11.0625 Q 25.484375 6.203125 34.421875 6.203125 Q 39.59375 6.203125 44.453125 7.46875 Q 49.3125 8.734375 54.109375 11.28125 L 54.109375 2.78125 Q 49.265625 0.734375 44.1875 -0.34375 Q 39.109375 -1.421875 33.890625 -1.421875 Q 20.796875 -1.421875 13.15625 6.1875 Q 5.515625 13.8125 5.515625 26.8125 Q 5.515625 40.234375 12.765625 48.109375 Q 20.015625 56 32.328125 56 Q 43.359375 56 49.78125 48.890625 Q 56.203125 41.796875 56.203125 29.59375 z M 47.21875 32.234375 Q 47.125 39.59375 43.09375 43.984375 Q 39.0625 48.390625 32.421875 48.390625 Q 24.90625 48.390625 20.390625 44.140625 Q 15.875 39.890625 15.1875 32.171875 z"/></defs><use xlink:href="#DejaVuSans-69"/><use x="63.184" xlink:href="#DejaVuSans-115"/><use x="115.283" xlink:href="#DejaVuSans-116"/><use x="154.492" xlink:href="#DejaVuSans-105"/><use x="182.275" xlink:href="#DejaVuSans-109"/><use x="279.688" xlink:href="#DejaVuSans-97"/><use x="340.967" xlink:href="#DejaVuSans-116"/><use x="380.176" xlink:href="#DejaVuSans-101"/></g></g><g id="line2d_17"><path d="M 401.30625 34.976562 L 421.30625 34.976562" style="fill:none;stroke:#ff7f0e;stroke-linecap:square;stroke-width:1.5"/></g><g id="text_16"><g transform="translate(429.30625 38.476562)scale(0.1 -0.1)"><defs><path id="DejaVuSans-84" d="M -0.296875 72.90625 L 61.375 72.90625 L 61.375 64.59375 L 35.5 64.59375 L 35.5 0 L 25.59375 0 L 25.59375 64.59375 L -0.296875 64.59375 z"/><path id="DejaVuSans-114" d="M 41.109375 46.296875 Q 39.59375 47.171875 37.8125 47.578125 Q 36.03125 48 33.890625 48 Q 26.265625 48 22.1875 43.046875 Q 18.109375 38.09375 18.109375 28.8125 L 18.109375 0 L 9.078125 0 L 9.078125 54.6875 L 18.109375 54.6875 L 18.109375 46.1875 Q 20.953125 51.171875 25.484375 53.578125 Q 30.03125 56 36.53125 56 Q 37.453125 56 38.578125 55.875 Q 39.703125 55.765625 41.0625 55.515625 z"/><path id="DejaVuSans-117" d="M 8.5 21.578125 L 8.5 54.6875 L 17.484375 54.6875 L 17.484375 21.921875 Q 17.484375 14.15625 20.5 10.265625 Q 23.53125 6.390625 29.59375 6.390625 Q 36.859375 6.390625 41.078125 11.03125 Q 45.3125 15.671875 45.3125 23.6875 L 45.3125 54.6875 L 54.296875 54.6875 L 54.296875 0 L 45.3125 0 L 45.3125 8.40625 Q 42.046875 3.421875 37.71875 1 Q 33.40625 -1.421875 27.6875 -1.421875 Q 18.265625 -1.421875 13.375 4.4375 Q 8.5 10.296875 8.5 21.578125 z M 31.109375 56 z"/><path id="DejaVuSans-32"/><path id="DejaVuSans-86" d="M 28.609375 0 L 0.78125 72.90625 L 11.078125 72.90625 L 34.1875 11.53125 L 57.328125 72.90625 L 67.578125 72.90625 L 39.796875 0 z"/><path id="DejaVuSans-108" d="M 9.421875 75.984375 L 18.40625 75.984375 L 18.40625 0 L 9.421875 0 z"/></defs><use xlink:href="#DejaVuSans-84"/><use x="46.334" xlink:href="#DejaVuSans-114"/><use x="87.447" xlink:href="#DejaVuSans-117"/><use x="150.826" xlink:href="#DejaVuSans-101"/><use x="212.35" xlink:href="#DejaVuSans-32"/><use x="244.137" xlink:href="#DejaVuSans-86"/><use x="304.795" xlink:href="#DejaVuSans-97"/><use x="366.074" xlink:href="#DejaVuSans-108"/><use x="393.857" xlink:href="#DejaVuSans-117"/><use x="457.236" xlink:href="#DejaVuSans-101"/></g></g></g></g></g><defs><clipPath id="p4b474e8bf3"><rect width="446.4" height="271.8" x="43.781" y="7.2"/></clipPath></defs></svg>